<?xml version="1.0" standalone="no"?><!DOCTYPE svg PUBLIC "-//W3C//DTD SVG 1.1//EN" "http://www.w3.org/Graphics/SVG/1.1/DTD/svg11.dtd"><svg t="1715411952475" class="icon" viewBox="0 0 1024 1024" version="1.1" xmlns="http://www.w3.org/2000/svg" p-id="11546" xmlns:xlink="http://www.w3.org/1999/xlink" width="200" height="200"><path d="M672.128 85.333333C835.84 85.333333 938.666667 187.392 938.666667 352.128v109.610667a32.298667 32.298667 0 0 1-32.256 32.256h-0.384v-0.768a32.64 32.64 0 0 1-32.64-32.554667V352.128c0-130.261333-71.253333-201.514667-201.130667-201.514667h-320C222.293333 150.613333 150.613333 222.293333 150.613333 352.128v320c0 129.450667 71.68 201.130667 201.514667 201.130667h320c129.834667 0 201.130667-71.68 201.130667-201.130667a32.64 32.64 0 1 1 65.28 0C938.666667 836.608 836.608 938.666667 672.298667 938.666667H352.085333C187.434667 938.666667 85.333333 836.608 85.333333 672.256v-320C85.333333 187.392 187.392 85.333333 352.128 85.333333zM418.773333 560.853333a32.682667 32.682667 0 0 1 44.544 47.786667l-29.056 29.013333a32.597333 32.597333 0 0 1-45.354666-0.768l-0.938667-0.682666a32.981333 32.981333 0 0 1 1.621333-46.165334z m-24.448-181.504a32.213333 32.213333 0 0 1 45.952-0.256l79.573334 79.616 72.405333-72.448a33.408 33.408 0 0 1 46.421333 0.298667c2.304 2.304 4.266667 4.906667 5.76 7.808a32.725333 32.725333 0 0 1-5.205333 39.466667l-72.106667 72.106666 78.421334 78.421334a32.853333 32.853333 0 0 1 1.194666 46.549333c-0.170667 0.256-0.426667 0.426667-0.64 0.682667a32.725333 32.725333 0 0 1-45.653333 0.512l-1.621333-1.578667L394.88 426.666667a34.858667 34.858667 0 0 1-0.554667-47.274667z" fill="#efeae8" p-id="11547"></path></svg>