<?xml version="1.0" encoding="UTF-8"?>
<svg id="_图层_2" data-name="图层 2" xmlns="http://www.w3.org/2000/svg" viewBox="0 0 440.21 136.08">
  <defs>
    <style>
      .cls-1 {
        fill: #2393d5;
      }

      .cls-2 {
        fill: #118ad1;
      }

      .cls-3 {
        fill: #0a88d0;
      }

      .cls-4 {
        fill: #92c426;
      }

      .cls-5 {
        fill: #178dd2;
      }

      .cls-6 {
        fill: #0b88d0;
      }

      .cls-7 {
        fill: #0f8ad1;
      }

      .cls-8 {
        fill: #148cd2;
      }

      .cls-9 {
        fill: #158cd2;
      }

      .cls-10 {
        fill: #0d89d1;
      }

      .cls-11 {
        fill: #0c88d1;
      }
    </style>
  </defs>
  <g id="_图层_1-2" data-name="图层 1">
    <g>
      <path class="cls-6" d="M16.52,93.03c8.96,8.56,17.3,17.92,27.03,25.49,12.59,9.79,27.08,9.13,39.82-.57,7.16-5.45,13.76-11.66,20.56-17.57,.67-.58,1.02-1.54,1.51-2.32,1.56-1.23,3.13-2.45,4.69-3.68,1.06-1.01,2.13-2.01,3.19-3.02l2.57-2.43c.85-.81,1.69-1.62,2.54-2.43,1.01,.04,2.39-.33,2.95,.18,2.47,2.28,4.77,4.76,6.96,7.32,.4,.47-.03,1.66-.07,2.51-.22,.23-.45,.46-.67,.69-.87,.85-1.75,1.7-2.62,2.55-1.39,1.32-2.78,2.64-4.17,3.96-.83,.78-1.66,1.57-2.49,2.35-.92,.85-1.84,1.71-2.77,2.56-1.25,1.11-2.5,2.22-3.75,3.34-1.41,1.26-2.82,2.52-4.23,3.79-.49,.42-.99,.84-1.48,1.26-2.51,2.13-5.02,4.26-7.54,6.38-.27,.22-.54,.45-.8,.67-1.67,1.26-3.35,2.53-5.02,3.79-6.17,2.5-12.14,5.83-18.54,7.32-9.86,2.3-19.56,.27-27.64-5.93-8.21-6.29-15.81-13.39-23.63-20.18-1.33-1.16-2.47-2.53-3.7-3.8-1.42-1.67-2.84-3.34-4.27-5.01-.36-.48-.72-.96-1.08-1.43-.22-.27-.43-.54-.65-.81,0,0-.02-.03-.02-.03-1.04-1.39-2.08-2.78-3.13-4.17-.78-1.11-1.56-2.22-2.34-3.34-1.72-2.7-3.45-5.41-5.17-8.11-.85-3.3-1.71-6.6-2.56-9.9,.31,0,.63-.02,.94-.03,4.77,6.36,9.54,12.72,14.31,19.09,.42,.5,.85,1.01,1.27,1.51Z"/>
      <path class="cls-11" d="M122.52,45.31c-1.11-1.34-2.23-2.67-3.34-4.01-.52-.59-1.05-1.19-1.57-1.78-.71-.81-1.43-1.63-2.14-2.44-.42-.45-.84-.89-1.25-1.34-7.59-6.64-14.63-14.09-22.9-19.74-11.78-8.05-24.55-7.49-36.07,.89-8.14,5.92-15.4,13.06-23.05,19.66-1.12,1.03-2.23,2.06-3.35,3.1-3.01,2.83-6.01,5.67-9.02,8.5-.36,.4-.73,.79-1.09,1.19,0,0,.05-.08,.05-.08-.29,0-.49,.14-.58,.42-1.84-1.11-3.81-2.06-5.5-3.37-1.57-1.22-2.84-2.82-4.24-4.25-.17-.53-.35-1.07-.52-1.6,.63-.71,1.26-1.43,1.88-2.14,7.55-6.95,15.11-13.89,22.66-20.84,.28-.03,.42-.18,.43-.46,.54-.4,1.08-.81,1.62-1.21,0,0,.03-.03,.03-.03,1.22-1.03,2.43-2.07,3.65-3.1,1.36-1.09,2.71-2.17,4.07-3.26,1.36-.93,2.72-1.85,4.08-2.78,1.06-.6,2.13-1.2,3.19-1.81,1.89-.82,3.78-1.64,5.68-2.47,13.38-4.4,25.89-2.66,37.51,5.33,2.24,1.63,4.48,3.27,6.71,4.9,0,0-.02-.02-.02-.02,2.2,1.92,4.4,3.83,6.6,5.75,.28,.26,.56,.52,.84,.79,1.1,1.09,2.19,2.17,3.29,3.26,.81,.83,1.62,1.67,2.43,2.5,1.06,1.14,2.12,2.29,3.17,3.43,0,0-.03-.02-.03-.02,.56,.62,1.12,1.24,1.68,1.85l1.8,2.1c.44,.49,.89,.99,1.33,1.48,.27,.36,.53,.73,.8,1.09,.34,.4,.67,.79,1.01,1.19,0,.28,.13,.47,.39,.58,2.62,3.57,5.23,7.13,7.85,10.7,.83,1.3,1.65,2.59,2.48,3.89,1.25,3,2.49,6,3.74,9,.11,.56,.23,1.13,.34,1.69-.14,.5-.28,1-.52,1.83-3.28-4.34-6.41-8.46-9.53-12.59-.19-.23-.37-.45-.56-.68,0,0-.04-.07-.04-.07-.49-.64-.98-1.27-1.48-1.91-.18-.24-.37-.48-.55-.72-.66-.81-1.31-1.61-1.97-2.42Z"/>
      <path class="cls-3" d="M23.25,92.72c-1.43-1.54-2.86-3.07-4.29-4.61-.25-.28-.51-.56-.76-.84-5.47-6.84-10.94-13.69-16.41-20.53-.5-2.56-.99-5.13-1.49-7.69,.49-.29,.97-.59,1.46-.88,2.01,2.6,4.03,5.21,6.04,7.81,.18,.21,.36,.42,.55,.63,9.63,12.67,20.61,24.03,33.41,33.5,7.37,5.45,15.51,5.31,22.71-.38,5.34-4.22,10.24-9,15.34-13.52,.2-.2,.41-.39,.61-.59,5.63-5.17,11.38-10.22,16.85-15.55,2.66-2.59,4.84-3.17,7.6-.31,2.26,2.35,4.74,4.47,7.33,6.89-.84,1.07-1.38,2-2.13,2.69-10.84,10.01-21.48,20.25-32.63,29.9-10.14,8.78-21.07,9.22-32.45,1.95-4.24-2.71-8.08-6.04-12.1-9.09-.26-.24-.53-.48-.79-.72,0,0-.08-.07-.08-.07-.53-.5-1.05-1.01-1.58-1.51-.93-.9-1.87-1.8-2.8-2.7,0,0-.07-.31-.07-.31l-.31-.07c-.47-.44-.95-.88-1.42-1.32-.86-.89-1.72-1.78-2.58-2.67Z"/>
      <path class="cls-10" d="M167.84,19.46h23.93V8.14c6.84-1.32,7.03-1.17,7.03,4.72,0,.55,.07,1.11-.01,1.64-.63,3.88,.84,5.26,4.87,5.05,6.13-.31,12.3-.04,18.45,0,.25,0,.5,.17,1.04,.36V52.99h-24.2v18.01h-6.86v-17.78h-24.25V19.46Zm6.61,6.22v21.1h17.29V25.69h-17.29Zm42.27,.09h-17.67v21h17.67V25.78Z"/>
      <path class="cls-7" d="M238.63,9.97h56.07v59.49h-56.07V9.97Zm50.07,6h-44.31c0,15.36,.03,30.37-.02,45.39,0,2.82,1.88,2.52,3.64,2.52,9.57,.01,19.14,0,28.71,0,3.92,0,7.85,0,11.98,0V15.98Z"/>
      <path class="cls-2" d="M349.35,9.2c-.22,.74-.44,1.48-.67,2.22,.25,.35,.49,.7,.74,1.04,5.98,0,11.97,0,18.4,0,0,2.6,0,4.59,0,6.57-.49,.84-.98,1.67-1.48,2.51-3.06,3.27-6.11,6.53-9.17,9.8-2.11,1.32-4.21,2.64-7.22,4.52,2.59,.4,4,.62,5.42,.84,0,0,0,0,0,0-.09,.21-.03,.36,.17,.46-.1,.2-.07,.38,.07,.55,.05,.61,.1,1.21,.14,1.81h14.05c1.5,5.22-.42,9.45-2.8,13.42-4.66,7.78-11.88,12.37-20.27,15.16-3.61,1.2-7.47,1.67-11.15,2.69-4.15,1.15-6.15-.44-6.59-4.5,4.59-.97,9.09-1.92,13.6-2.87,1.54-.47,3.08-.94,5.74-1.75-2.52-1.87-4.06-3.01-5.6-4.14,0,0,.04,.03,.04,.03-.1-.79-.2-1.57-.31-2.36,1.2-.87,2.39-1.74,3.86-2.81,2.31,2.1,4.57,4.16,6.91,6.29,4.89-3.35,8.44-7.2,10.03-13.27-3.89,0-7.27-.13-10.64,.07-1.22,.07-2.62,.65-3.55,1.45-3.1,2.64-6.03,5.49-9.02,8.26,0,0,.05,.02,.05,.02-.49,.22-1.01,.39-1.47,.66-4.83,2.82-5.14,2.74-8.51-2.29,.16-.22,.32-.44,.49-.66,2.39-1.6,4.78-3.2,7.18-4.8,.47-.38,.94-.76,1.41-1.14,1.4-1.35,2.81-2.71,4.21-4.06,1.37-1.63,2.74-3.25,4.11-4.88-.22-.24-.44-.49-.66-.73-1.74,.85-3.48,1.7-5.22,2.55-.79,.31-1.58,.63-2.37,.94-.27,.15-.55,.3-.82,.46,0,0,.02,0,.02,0-.58,.24-1.17,.49-1.75,.73,0,0,.06-.04,.06-.04-1.36-.76-2.73-1.53-4.09-2.3-.23-.29-.45-.58-.68-.87,.72-.81,1.29-1.96,2.19-2.36,3.77-1.67,7.64-3.11,12.14-4.9-2.49-2.31-4.33-4.02-6.17-5.73,1.16-1.26,2.31-2.52,3.64-3.97,2.11,1.71,3.81,3.29,5.72,4.54,.84,.55,2.59,1,3.11,.55,2.66-2.27,5.05-4.85,7.53-7.32-.22-.35-.44-.71-.66-1.06-3.09,0-6.22,.3-9.26-.07-5.03-.61-8.68,1.02-10.98,5.56q-5.21,4.4-8.96-.03c2.16-2.24,4.32-4.47,6.48-6.71,.18-.2,.35-.41,.53-.61,1.26-1.79,2.53-3.58,3.79-5.36,.54-.94,1.07-1.88,1.61-2.81,.21-.33,.43-.66,.64-.99,.57-.13,1.15-.25,1.72-.38,.88,.29,1.76,.58,2.65,.87,.53,.4,1.06,.81,1.59,1.21Z"/>
      <path class="cls-7" d="M408.31,19.97c2.62,.23,5.23,.47,8.49,.76V7.87h6.46c0,3.18,.14,6.16-.04,9.13-.17,2.64,.69,3.71,3.45,3.6,4.34-.18,8.7-.05,13.53-.05,0,1.97,.04,3.55,0,5.14-.34,10.52-.57,21.04-1.1,31.55-.52,10.47-2.83,12.48-13.38,12.37-.95,0-1.89-.09-3.28-.16-.35-1.96-.7-3.9-1.16-6.5,2.56,0,4.81,.43,6.77-.13,1.64-.48,4.11-2.03,4.2-3.27,.84-10.71,1.23-21.46,1.76-32.45h-10.55c-.39,6.48-.45,12.89-1.23,19.21-1.04,8.48-4.46,16.02-10.6,22.14-4.63,4.62-5.11,4.55-9.11-.73,1.87-2.08,3.73-4.15,5.58-6.22-.2-.17-.39-.33-.59-.5,0,0-.03,.04-.03,.04,.57-.29,1.14-.57,1.7-.86,0,0-.07,.04-.07,.04,1.81-3.1,4.56-6.01,5.25-9.34,1.57-7.63,2.14-15.47,3.17-23.71-3.6-.19-5.98-.31-8.75-.46-.15-2.35-.3-4.56-.44-6.77l-.05,.05Z"/>
      <path class="cls-7" d="M312.84,55.16c-.71,.8-1.42,1.6-2.11,2.39-4.92-3.37-4.75-3.28-2.04-8.19,2.81-5.1,5.24-10.4,8.2-16.35h-9.37c-.09-2.09-.17-3.76-.27-6h9.72v-8.19c-2.58,.21-5.08,.42-8.08,.66-.26-1.76-.51-3.43-.81-5.44,6.76-1.18,13.28-2.31,19.79-3.44,.4-.12,.8-.24,1.2-.35,.79,.48,1.59,.96,2.38,1.44,.16,.56,.32,1.12,.48,1.68,.05,.83,.1,1.67,.14,2.5-.64,.32-1.28,.64-1.92,.96q-7.26,1.12-6.61,8.89c2.76,.72,5.53,1.43,8.47,2.2-.07,1.51-.14,3.07-.24,5.04h-8.51c-.19,4.25,3.13,5.11,5.31,6.89,.58,.48,1.17,.95,1.75,1.43,1.02,.85,2.04,1.7,3.06,2.55-1.01,1.69-2.01,3.37-3.02,5.06-.31,.07-.62,.14-.92,.21-.26-.14-.53-.27-.79-.41-.84-.79-1.67-1.57-2.51-2.36,0,0-.07-.07-.07-.07-.25-.23-.5-.47-.75-.7,0,0-.1-.09-.1-.09-.53-.43-1.05-.85-1.58-1.28-.04,.42-.08,.84-.12,1.26v25.53h-6.49c0-5.74,0-11.29,0-16.84,.09-1.93,.17-3.87,.26-5.8l-.87-.24c-1.19,2.35-2.38,4.7-3.58,7.05Z"/>
      <path class="cls-8" d="M332.88,96.07c-3.01,7.14-5.97,14.31-9.09,21.41-.53,1.21-1.75,2.11-2.65,3.15-.88-1.09-2.06-2.04-2.61-3.28-3.03-6.84-5.91-13.75-9.55-20.56v23.55h-5.34v-34.43c5.73-1.71,6.53-1.35,8.79,4.07,2.82,6.75,5.62,13.5,8.76,21.07,3.13-7.51,5.95-14.25,8.76-20.99q2.25-5.41,8.7-4.38v34.76h-4.85v-24.3c-.31-.02-.61-.04-.92-.06Z"/>
      <path class="cls-9" d="M407.51,60.99c-9.38-1.23-17.94,2.65-26.89,4.42-1.88-2.15-1.89-3.92-.58-6.6,3.46-7.06,6.29-14.43,9.7-22.45h-10.71v-6.07h31.35v5.96c-3.96,0-7.89-.16-11.78,.09-1.19,.08-2.94,1-3.34,1.99-2.6,6.3-4.91,12.72-7.58,19.83,4.39-1.06,8.39-2.03,12.75-3.08-1.42-3.41-2.67-6.4-4.1-9.84,1.81-.81,3.48-1.56,5.86-2.63,2.38,6.06,4.66,11.83,6.93,17.6,0,0,.07-.04,.07-.04-.57,.29-1.14,.57-1.7,.86l.03-.04Z"/>
      <path class="cls-9" d="M202.5,109.58c-2.48,7.63-10.44,12.29-19.1,11.18-8.47-1.08-15.25-8.38-15.74-16.91-.5-8.9,5.28-16.92,13.71-19,8.79-2.17,17.57,2.14,21.34,10.68-2.65,1.13-4.65,.87-6.71-1.49-5.27-6.03-13.71-6.41-19.28-1.12-5.5,5.22-5.59,13.72-.22,19.06,5.51,5.48,14.11,5.08,19.68-.93q2.32-2.5,6.31-1.48Z"/>
      <path class="cls-7" d="M393.95,102.36c-1.13-6.11-7.41-9.14-13.41-7.4-1.01,.29-1.96,.75-3.47,1.35-.02,0-.05,0-.05-.03v-13.86s0-.03-.03-.03c-1.76,.09-3.06,.16-4.48,.23-.02,0-.03,.02-.03,.03v38.39s.02,.03,.04,.03c2-.71,3.54-1.72,5.01-1.62,1.81,.11,3.52,1.55,5.34,1.77,4.34,.5,9.04-2.01,10.33-6.5,1.12-3.9,1.5-8.4,.76-12.36Zm-6.59,12.47c-2.18,2.29-5.26,2.94-7.37,.92-1.35-1.29-2.09-3.2-2.85-5.12l.05-2.98s.02-.02,.02-.03c.03-3.44-1.1-7.41,4.02-8.43,3-.6,5.43,.11,7.05,2.82,2.07,3.44,1.62,10.15-.93,12.83Z"/>
      <path class="cls-8" d="M227.78,120.41h-4.91c0-5.42,0-10.58,0-15.74,0-2.8-.39-5.31-3.93-5.58-3.31-.24-6.74,2.46-6.83,5.65-.14,5.05-.04,10.1-.04,15.53h-4.98v-37.56h4.79v13.52c2.99-.6,5.57-1.48,8.18-1.57,4.23-.14,7.34,2.29,7.6,6.45,.4,6.35,.11,12.75,.11,19.29Z"/>
      <path class="cls-9" d="M439.23,109.37h-15.69c.19,6.59,4.45,8.34,14.66,6.17,1.31,3,.55,4.61-2.84,5.35-11.34,2.47-18.53-3.7-17.3-15,.83-7.64,6.18-12.17,13.27-11.23,5.96,.78,9.28,6.67,7.9,14.72Zm-4.86-4.84c-.49-3.63-2.09-5.72-5.35-5.5-3.08,.21-5.12,1.98-5.34,5.5h10.69Z"/>
      <path class="cls-2" d="M283.22,104.68c-.56-5.67-2.6-6.39-12.52-4.6-1.48-3.34,.08-4.97,3.25-5.18,2.83-.18,5.77-.21,8.52,.37,3.32,.7,5.72,3.08,5.87,6.58,.27,6.11,.07,12.24,.07,18-4.3,.51-8.21,1.26-12.14,1.38-4.71,.14-8.01-3.3-8.24-7.93-.22-4.37,2.61-7.96,7.15-8.56,2.52-.33,5.13-.06,8.04-.06Zm-4.42,4.17c-2.78,.15-5.27,.44-5.39,3.84-.09,2.7,1.42,3.99,4.02,4.07,3.22,.1,6.02-2.11,6.1-4.67,.12-3.83-2.98-2.62-4.73-3.24Z"/>
      <path class="cls-9" d="M264.51,120.49h-5.11c0-5.14,.02-10.13,0-15.12-.02-2.96-.06-6.02-4.12-6.26-3.71-.23-6.61,2.7-6.65,6.6-.04,4.76,0,9.52,0,14.62h-5.03v-25.51c1.97,.62,3.65,1.14,5.01,1.57,2.62-.61,5.2-1.62,7.82-1.72,4.76-.17,7.81,2.63,8.03,7.41,.27,5.97,.07,11.96,.07,18.41Z"/>
      <path class="cls-5" d="M368.92,107.59c.09,7.38-5.72,13.43-13.05,13.59-7.23,.16-13.51-5.8-13.71-13.02-.21-7.48,5.73-13.58,13.35-13.71,7.36-.12,13.33,5.72,13.42,13.14Zm-13.42-8.73c-4.83,.05-8.79,4.09-8.76,8.95,.03,4.8,4.18,8.89,8.94,8.79,4.78-.1,8.94-4.32,8.84-8.97-.1-4.75-4.29-8.82-9.02-8.77Z"/>
      <path class="cls-1" d="M408.35,19.93h-26.79v-6.21h26.32c.14,2.06,.28,4.16,.43,6.25,0,0,.05-.05,.05-.05Z"/>
      <path class="cls-9" d="M414.41,117.5c0,.93-.71,1.85-1.08,2.78-3.24,.92-4.32-.27-4.25-3.63,.21-10.87,.15-21.76,.2-32.63,.26-.45,.53-.9,.79-1.36,1.03,0,2.07-.02,3.1-.02,.43,.85,1.23,1.68,1.23,2.52,.09,10.78,.09,21.56,.02,32.34Z"/>
      <path class="cls-9" d="M398.76,95.33h4.77v24.94h-4.77v-24.94Z"/>
      <path class="cls-8" d="M238.16,95.41v24.87h-4.84v-24.87h4.84Z"/>
      <path class="cls-1" d="M403.55,85.38v5.09h-4.81v-5.09h4.81Z"/>
      <path class="cls-1" d="M232.84,85.22h5.17v5.19c-1.41,.11-2.72,.2-4.65,.35-.17-1.76-.32-3.39-.52-5.54Z"/>
      <path class="cls-4" d="M95.37,57.69c-1.63,.89-3.51,1.5-4.86,2.7-10.13,8.99-20.1,18.17-30.25,27.14-8.39,7.42-15.46,7.59-23.47-.35C25.24,75.74,14.25,63.74,3.03,51.98c-.05-.56-.1-1.11-.15-1.67,.54-1.08,1.08-2.16,1.9-3.82,2.74,3.11,5.09,6.06,7.73,8.73,6.73,6.79,13.44,13.6,20.43,20.12,4.94,4.6,8.99,4.34,14.08-.24,10.06-9.05,20.06-18.18,30.15-27.2,7.25-6.48,14.24-7.28,21.24-.65,11.89,11.25,23,23.32,34.31,35.17,2.13,2.23,1.78,3.05-.66,6.32-4.87-5.13-9.74-10.26-14.61-15.39-.8-.79-1.6-1.59-2.4-2.38-5.03-4.95-9.29-10.86-16.39-13.25-1.1-.01-2.19-.02-3.29-.03Z"/>
      <path class="cls-3" d="M130.5,62.73c.61,.8,1.21,1.59,1.82,2.39,.82,1.13,1.63,2.25,2.45,3.38,.72,1.33,1.44,2.66,2.17,3.99,0,.83-.02,1.66-.02,2.49-.25,.74-.5,1.49-.84,2.52-.7-.43-1.31-.81-1.92-1.18-.4-.54-.79-1.08-1.19-1.62-8.76-9.75-17.53-19.5-26.29-29.25-.19-.18-.37-.36-.56-.54-.78-.67-1.57-1.35-2.35-2.02-.87-.77-1.75-1.54-2.62-2.31-3.98-2.53-7.96-5.07-11.94-7.6-.39-.16-.78-.32-1.17-.48-5.12-1.17-9.85-.43-14.08,2.83-.34,.27-.68,.54-1.03,.81,0,0,.05-.1,.05-.1-.49,.38-.99,.75-1.48,1.13-1.05,.88-2.11,1.77-3.16,2.65-.85,.77-1.7,1.53-2.55,2.3-3.84,3.46-7.67,6.92-11.51,10.38-.76,.67-1.52,1.33-2.28,2-1.15,1.07-2.29,2.14-3.44,3.21-1.43,1.35-2.87,2.7-4.3,4.05-1.13,.95-2.31,1.83-3.37,2.85q-5.1,4.88-10.36,.11c-1.09-.99-2.24-1.91-3.36-2.86-.77-.91-1.55-1.83-2.32-2.74,0,0-.01-.28-.01-.28,.23-.37,.46-.74,.69-1.11,0,0,.03-.03,.03-.03,.26-.26,.51-.53,.77-.79,1.94-1.92,3.88-3.84,5.81-5.76,.27-.27,.54-.53,.81-.8,8.44-7.57,16.74-15.3,25.34-22.67,11.76-10.08,23.16-10.56,35.82-1.57,4.77,3.39,9.13,7.37,13.67,11.08,.54,.52,1.07,1.03,1.61,1.55,5.08,5.55,10.17,11.09,15.26,16.64,.39,.47,.78,.95,1.18,1.42,1.11,1.4,2.22,2.8,3.34,4.2,.45,.59,.9,1.17,1.35,1.76Z"/>
      <path class="cls-7" d="M281.04,39.94c-1.37,0-2.73-.01-4.1-.02-2.37,0-4.75,0-7.13,0v12.8h12.02c4.63-.26,3.56,2.67,3.12,5.75-8.31,0-16.48,0-24.65,0-2.73,0-5.47,.01-8.2,0-4.77-.01-4.96-.29-3.6-5.61h14.89v-12.89h-13.1v-5.64h13.24v-8.1c-3.41,0-6.76,0-10.1,0-4.91,0-5-.11-4.02-5.38h34.72v5.31h-14.3v8.11h13.56c-.31,2.24-.53,3.89-.76,5.54-.53,.04-1.07,.07-1.6,.11Z"/>
      <path class="cls-2" d="M280.12,50.89c-1.01-.13-2.42,.11-2.97-.46-1.93-2.01-3.57-4.3-5.98-7.31,2.24-.73,4-1.31,5.76-1.89,1.91,2.28,3.82,4.56,6.27,7.49-1.09,.77-2.08,1.47-3.07,2.17Z"/>
    </g>
  </g>
</svg>