<?xml version="1.0" encoding="UTF-8"?>
<svg id="_图层_2" data-name="图层 2" xmlns="http://www.w3.org/2000/svg" viewBox="0 0 512.55 140.89">
  <defs>
    <style>
      .cls-1 {
        fill: #0a4da0;
      }

      .cls-2 {
        fill: #0c4ea0;
      }

      .cls-3 {
        fill: #094da0;
      }

      .cls-4 {
        fill: #0a4d9f;
      }

      .cls-5 {
        fill: #02499d;
      }

      .cls-6 {
        fill: #044a9e;
      }

      .cls-7 {
        fill: #074a9e;
      }

      .cls-8 {
        fill: #0f52a2;
      }

      .cls-9 {
        fill: #597fb9;
      }

      .cls-10 {
        fill: #074b9f;
      }

      .cls-11 {
        fill: #054a9e;
      }

      .cls-12 {
        fill: #064b9e;
      }

      .cls-13 {
        fill: #094c9f;
      }

      .cls-14 {
        fill: #f9fbfd;
      }

      .cls-15 {
        fill: #054b9e;
      }

      .cls-16 {
        fill: #084b9f;
      }

      .cls-17 {
        fill: #034a9e;
      }
    </style>
  </defs>
  <g id="_图层_1-2" data-name="图层 1">
    <path class="cls-5" d="M42.26,79c-3.98-.5-7.72-.86-11.42-1.45-5.94-.95-11.74-2.5-17.05-5.38-2.44-1.32-4.83-2.88-6.91-4.69C1.23,62.56-1.89,54.94,1.25,46.19c1.59-4.43,4.08-8.3,7.15-11.82,4.82-5.53,10.54-10,16.72-13.89,6.44-4.06,13.24-7.39,20.33-10.16,.43-.17,.87-.27,1.49-.46,.5,1.95,.98,3.79,1.5,5.8-.98,.47-1.88,.92-2.8,1.35-5.75,2.66-11.24,5.77-16.02,9.96-1.73,1.52-3.39,3.19-4.8,5.01-1.2,1.56-2.21,3.35-2.92,5.18-1.63,4.24-.51,8.36,3.03,11.19,1.6,1.28,3.43,2.36,5.31,3.2,3.97,1.77,8.2,2.54,12.73,2.96,.42-2.64,.78-5.22,1.24-7.78,1.74-9.8,4.42-19.29,9.12-28.13,2.15-4.04,4.68-7.82,8-11,.92-.88,1.89-1.73,2.92-2.49,6.81-5.02,14.25-5.06,21.07-.04,1.41,1.03,2.7,2.25,3.93,3.51,3.77,3.88,6.45,8.49,8.87,13.61-1.9,.52-3.62,1.05-5.38,1.43-.43,.09-1.06-.23-1.45-.55-4.65-3.8-8.7-1.84-11.27,1.44-1.46,1.87-2.71,3.96-3.72,6.11-3.22,6.86-4.59,14.2-5.55,21.99,1.6-.35,2.98-.61,4.34-.94,10.86-2.64,21.2-6.53,30.67-12.56,3.32-2.11,6.47-4.46,9.06-7.42,1.52-1.73,2.98-3.59,4.04-5.61,2.8-5.35,1.45-10.37-3.47-13.86-2.44-1.73-5.19-2.79-8.03-3.65-.68-.21-1.36-.4-2.1-.61-.69-2.59-1.35-5.12-2.1-7.95,1.5,.12,2.75,.21,3.99,.33,7.66,.74,15.18,2.1,22.3,5.2,3.54,1.54,6.87,3.44,9.68,6.1,6.08,5.75,8.09,12.63,5.5,20.71-1.49,4.65-4.12,8.63-7.3,12.27-6.02,6.88-13.34,12.13-21.27,16.57-13.65,7.64-28.3,12.5-43.63,15.39-.85,.16-1.7,.35-2.73,.56,.13,2.08,.21,4.05,.37,6.02,.66,8.06,1.75,16.04,4.38,23.73,.7,2.03,1.63,3.99,2.56,5.93,.44,.93,1.07,1.78,1.73,2.58,2.98,3.61,6.32,3.7,9.13-.09,1.59-2.15,2.82-4.64,3.83-7.13,2.04-5.06,3.04-10.41,3.83-15.79,.08-.55,.16-1.1,.28-1.88,3.42-.9,6.88-1.82,10.39-2.74,.11,.27,.28,.48,.26,.66-1.44,11.97-4.2,23.58-9.7,34.4-2.22,4.37-4.91,8.42-8.45,11.85-2.86,2.77-6.12,4.8-10.03,5.81-3.35,.86-6.48,.34-9.59-.9-3.97-1.58-7.05-4.34-9.74-7.56-4.83-5.79-7.96-12.51-10.4-19.57-3.47-10.03-5.25-20.39-6.04-30.95-.06-.79-.14-1.57-.22-2.48Z"/>
    <path class="cls-6" d="M214.51,94.8c-.23-.48-.45-.97-.78-1.67-1.75,2.25-.3,4.06,.05,5.97-.09-.47-.18-.95-.27-1.42-.25,.2-.51,.4-.76,.6v2.19c-.1,.03-.2,.06-.3,.1-.13-.27-.31-.53-.37-.81-.22-1.09-.29-2.22-.62-3.27-.54-1.71-.81-3.4-.35-5.17,.1-.37,.21-.83,.09-1.16-1.07-2.77-.36-5.7-.78-8.52-.26-1.72-.62-3.44-.77-5.17-.14-1.57-.21-3.17-.05-4.74,.22-2.14,.02-4.13-1.11-5.94-3.53,.82-7.01,1.62-10.48,2.44-.54,.13-1.17,.2-1.58,.52-2.05,1.61-4.27,.84-6.45,.56-1.05-.14-1.74-.7-1.98-1.78-.29-1.32-.62-2.62-1-4.2-1.12,.32-2.17,.57-3.19,.92-1.14,.39-1.88,0-2.71-.86-1.75-1.83-2.42-4.23-3.6-6.35-.29-.53-.39-1.23-.37-1.85,.09-2.78,.33-5.5,1.5-8.14,2.39-5.43,4.5-10.99,6.8-16.46,.7-1.66,1.64-3.21,2.66-5.17,.46,.76,.79,1.16,.96,1.62,.67,1.79,1.37,3.57,1.88,5.4,.27,.96,.16,2.03,.23,3.27,.6-.18,1.34-.22,1.86-.58,4.11-2.83,8.94-4.14,13.32-6.39,.86-.44,1.78-.64,1.76-1.92,0-.4,.55-.78,.68-1.22,.28-.96,.5-1.94,.64-2.93,.17-1.24,.23-2.49,.34-3.74,.08-.87,.29-1.75,.21-2.6-.26-3,.13-6.09-1.1-8.98,.68-1.26,0-2.39-.54-3.76,.69-.09,1.2-.26,1.68-.2,3.1,.38,5.6,1.83,7.4,4.37,.96,1.36,1.85,2.8,2.6,4.29,1.42,2.81,3.12,5.38,5.54,7.43,.93,1.13,2.21,.19,3.27,.53,0,0,.06,.02,.06,.02,.36,.25,.78,.76,1.07,.7,1.33-.27,2.63-.7,4.02-1.1,0,.04,.05-.11,.03-.26-.12-1.18,.8-.6,1.28-.72,.03,0,.19,.48,.29,.74-.09,.63-.17,1.25-.28,1.98,1.67-.49,3.05-.89,4.6-1.35-.09,.83-.15,1.42-.21,1.97,.93,.31,1.74,.58,2.55,.85-1.42,.84-2.84,1.68-4.26,2.51-.3,.13-.59,.25-.89,.38-.5,.18-1,.37-1.5,.55-.31,.13-.62,.26-.93,.4-.97,.53-1.94,1.07-2.91,1.6-.1,.1-.2,.21-.3,.31-.07,.77-.13,1.54-.2,2.31-.11,.19-.21,.38-.32,.57,.02,.49,.03,.98,.05,1.48-.08,.16-.05,.3,.09,.41,.05,.54,.1,1.08,.15,1.62-.03,.04-.1,.1-.1,.12,.04,.09,.1,.18,.15,.26,.08,1.12,.15,2.24,.23,3.36,.06,.23,.13,.46,.19,.69,.21,.21,.45,.62,.61,.59,.49-.09,.96-.35,1.43-.54,.33-.08,.67-.16,1-.25,1.97,.3,3.38-.77,4.54-2.1,1.4-1.61,2.65-3.36,3.91-5.08,.47-.63,1.11-1.35,1.13-2.04,.04-1.09,.74-1.69,1.16-2.5,.94-1.83,2.15-3.62,1.49-5.97-.47,.13-.83,.23-1.19,.33-.48,.03-.95,.06-1.43,.08l-.09,.08c-.07,.1-.14,.2-.21,.31-.1,.17-.21,.34-.31,.5-.15,0-.3,0-.44-.01l.04-.04c-.45-.52-.91-1.05-1.45-1.67,.61-.08,.99-.12,1.38-.17l1.5-.06c.59,.05,1.19,.1,1.78,.14,.19-.2,.39-.4,.58-.6,0,0,.03,.02,.03,.02,.33,.3,.66,.61,.99,.91,0,0,.01,.02,.01,.02,.12,.19,.24,.37,.36,.56,.84,1.9,.11,3.78-.09,5.65-.27,2.53-.63,5.06-.96,7.58-.05,.39-.02,.84-.21,1.16-1.95,3.18-2.06,6.82-2.61,10.35-.21,1.34-.37,2.7-.74,3.99-.86,2.99-2.47,5.31-5.86,5.8-.47,.07-.93,.32-1.39,.33-2.82,.09-4.26,1.81-5.13,4.25-.61,1.73-1.33,3.42-1.89,5.16-.45,1.38-.92,2.68-1.99,3.75-.45,.45-.62,1.26-.72,1.93-.16,1.02-.25,2.07-.22,3.1,.12,4.49-.83,8.7-2.96,12.67-.43,.8-.49,1.81-.64,2.74-.16,.94-.25,1.89-.31,2.84-.09,1.5-.24,3.01-.17,4.51,.11,2.31-.09,2.83-2.1,4.07-.15,.98,.72,2.29-1.07,2.9-.45,.15-.42,1.72-.67,2.95-.62-.8-.8-1.94-1.91-1.32-.27-.84-.62-1.66-.77-2.51-.11-.65,.04-1.34,.08-2.01,.14-.39,.28-.78,.41-1.17,.39-.18,.77-.37,1.16-.55-.05-.14-.09-.28-.14-.42-.61-.06-1.22-.11-1.83-.17-.14-.57-.28-1.14-.42-1.71-.07-.2-.13-.41-.2-.61-.14-.57-.29-1.13-.43-1.7-.07-.23-.14-.45-.21-.68Zm-6.24-57.57c-1.79,1.07-3.38,2.1-5.04,2.98-1.05,.56-2.2,.94-3.33,1.32-1.81,.6-3.28,1.65-4.43,3.14-1.7,2.2-3.5,4.34-4.18,7.18-.21,.88-.88,1.68-1.47,2.42-1.24,1.56-1.31,3.43-1.59,5.39,1.32-.45,2.64-.88,3.57-1.73,2.21-2.02,4.64-3.32,7.68-3.46,1.02-.05,2.02-.43,3.02-.7,3.45-.91,5.24-3.72,7.16-6.35,.34-.47,.51-1.25,.4-1.82-.55-2.86-1.21-5.69-1.8-8.36Z"/>
    <path class="cls-6" d="M364.63,35.8c.36,.74,.64,1.11,.71,1.52,.16,.83,.62,1.3,1.22,1.9,1.99,2.01,3.52,4.25,2.8,7.4-.39,1.69-.37,3.47-.57,5.58,.78-.38,1.29-.53,1.68-.83,2.42-1.82,4.88-3.53,6.39-6.35,.8-1.49,.99-2.76,.26-4.55-1.3,.3-2.64,.62-3.82,.89-1.05-.58-1.99-1.09-3.1-1.69,.47-.43,.92-.99,1.49-1.35,1.95-1.25,3.88-2.54,5.93-3.6,1.65-.85,2.6-2.03,2.87-3.83,.28-1.9,.65-3.78,.91-5.68,.28-2.08,.79-4.03,1.88-5.88,.61-1.04,.73-2.37,1.12-3.75,2.81,.35,5.21,1.49,7.06,3.58,1.07,1.21,1.07,2.78,.79,4.33-.36,1.93-.69,3.87-1.12,6.36,1.29-.45,2.1-.63,2.81-1,2.42-1.23,4.81-2.52,7.21-3.79,2.46-1.31,4.93-.67,7.4-.04,.91,.23,1.85,.45,2.66,.87,.88,.46,1.93,.99,2.39,1.78,1.18,2.05,2.02,4.29,3.1,6.4,.92,1.81,.88,3.81,.53,5.57-.64,3.17-1.85,6.23-2.84,9.33-.14,.45-.4,.87-.57,1.32-1.95,5.03-2.03,3.6,.38,7.89,1.24,2.21,.87,5.21-.84,7.24-.36,.43-.81,.84-1,1.34-.79,2.08-2.34,2.82-4.46,2.91-3.84,.16-7.5,1.31-11.18,2.28-.23,.06-.47,.25-.68,.22-3.58-.56-4.99,2.27-6.84,4.38-.33,.38-.6,1.11-.46,1.53,.57,1.65,1.05,3.46,2.11,4.76,.65,.8,2.34,1.2,3.48,1.06,4.49-.56,9.08-.55,13.43-2.15,1.56-.57,3.25-.81,4.9-1.11,2.7-.5,5.23-1.4,7.41-3.35,1.1,.84,2.9,.62,2.99,2.58,1.88,.46,1.07,3.06,3.55,3.55-1.15,.79-1.77,1.32-2.47,1.68-1.02,.51-1.71,1.05-2.11,2.31-.42,1.32-1.32,2.44-3.13,2.79-3.11,.61-6.08,1.91-9.19,2.59-4.58,1.01-9.07,2.75-13.78,2.73-3.88-.01-7.88-.34-11.62-1.31-5.36-1.39-9.5-4.51-10.53-10.5-.26-1.49-.68-2.96-.99-4.44-.28-1.36-1.09-2.13-2.47-2.17-3-.09-5.02-1.7-6.67-4.03-.34-.49-.91-.85-1.43-1.17-.47-.28-1.05-.39-1.54-.64-3.21-1.6-3.66-3.24-2.48-6.62,1.66-4.78,2.43-9.76,1.94-14.84-.27-2.79-.23-5.32,1.7-7.67,.97-1.18,1.28-2.89,1.89-4.36,.23-.55,.5-1.09,.91-1.98Zm39.89-2.9c-1.78-.16-3.77-.8-5.52-.4-2.75,.62-5.41,1.8-7.97,3.05-.85,.41-1.46,1.68-1.8,2.68-.62,1.82,.06,2.78,1.99,2.91,3.06,.21,6.02-.04,8.7-1.9,1.27-.88,2.81-1.41,4.26-2.01,1.16-.48,1.7-1.47,1.24-2.63-.17-.44-.44-.84-.9-1.69Zm-2.13,15.22c-.73-.23-.95-.38-1.17-.36-3.65,.34-6.93,1.69-9.82,3.9-1.19,.91-1.72,4.04-1.18,5.51,.32,.86,.94,1.21,1.81,1.3,1.99,.21,8.24-2.94,8.94-4.78,.66-1.74,.93-3.63,1.41-5.58Zm-36.65,20.68c2-.79,3.93-1.49,5.81-2.31,.61-.27,1.36-.75,1.56-1.31,.62-1.71,1.15-3.48,1.43-5.28,.28-1.82-.76-2.78-2.54-2.46-2.34,.41-4.5,1.16-5.05,3.93-.14,.7-.4,1.37-.5,2.08-.26,1.78-.47,3.56-.7,5.35Z"/>
    <path class="cls-11" d="M322.43,54.97c.2-.19,.53-.36,.57-.58,.19-.93,.5-1.91,.39-2.82-.68-5.84,.29-11.61,.66-17.4,.29-4.53,.57-9.07,.8-13.61,.16-3.06-2.26-5.51-5.28-5.44-.64,.01-1.29,.09-1.91-.02-2.49-.46-4.83,.11-7.29,.5-5.19,.81-9.89,2.96-14.81,4.51-2.04,.64-3.95,1.69-6,2.29-1.58,.46-3.28,.61-4.94,.7-1.18,.06-2.3-.22-3.24-1.22-.6-.63-1.65-.84-2.75-1.35,.71-.36,1.28-.77,1.92-.96,2.44-.74,4.9-1.39,7.34-2.11,.53-.15,1.08-.34,1.53-.65,5.18-3.59,11.04-5.15,17.18-6.16,2.69-.44,5.48-.63,8.06-1.94,1.36-.69,3.1-.66,4.67-.89,2.05-.31,4.11-.56,6.17-.84,1.88-.25,3.52,.24,4.72,1.72,1.35,1.67,2.58,3.44,3.87,5.17,.93,1.25,1,2.63,.66,4.11-.29,1.24-.51,2.5-.68,3.77-.1,.79-.3,1.72,0,2.37,1.12,2.35,.38,4.63,.03,6.95-.12,.78-.19,1.61-.05,2.38,1.18,6.72,.95,13.53,1.22,20.31,.1,2.47,.38,4.94,.39,7.41,.02,4.54-.11,9.08-.16,13.61,0,.87,.06,1.74,.11,2.62,.08,1.42,.27,2.78-.35,4.22-.35,.82-.07,2.06,.25,3.01,.71,2.13,.62,4.19,.28,6.37-.31,1.95-.29,3.97-.27,5.95,.03,3.17-1.48,5.78-4.34,7.15-.88-.44-1.79-.93-2.73-1.36-3.07-1.41-5.21-3.47-5.9-6.99-.31-1.59-1.29-3.06-2.05-4.54-1.12-2.2-2.42-4.31-3.44-6.55-.61-1.33-.82-2.85-1.26-4.46,3.39-.62,3.89,3.05,6.52,3.62,.07-1.53,.35-2.95,.14-4.3-.26-1.7,.13-3.17,.89-4.6,.75-1.4,.93-2.83,.68-4.39-.4-2.44-.78-4.89-1-7.36-.22-2.45-.21-4.92-.33-7.38-.01-.29-.17-.57-.25-.86l-.04,.04Z"/>
    <path class="cls-17" d="M287.41,60.76c-1.8,.09-3.01-.47-3.88-1.83-.3-.47-.99-.69-1.49-1.03-.71-.48-1.48-.89-2.09-1.47-.28-.26-.46-1.04-.28-1.29,.88-1.18,1.15-2.8,2.63-3.54,2.55-1.28,5.02-2.77,7.65-3.87,1.24-.52,1.92-1.15,1.93-2.36,0-1.56-.19-3.12-.32-4.94-1.8,0-3.3-.04-4.8,0-3.01,.09-3.39-.23-3.72-3.46-.83-.39-1.8-.75-2.67-1.27-.49-.29-.82-.85-1.22-1.29,.43-.39,.83-.85,1.31-1.16,.66-.42,1.47-.63,2.1-1.08,4.11-2.96,8.68-4.9,13.5-6.36,1.28-.39,2.47-1.15,3.76-1.48,3.24-.83,6.51-1.52,9.77-2.24,.28-.06,.69,0,.9,.18,1.61,1.37,3.02,3.05,3.07,5.18,.07,2.97-1.34,5.45-3.51,7.5-1.57,1.48-3.2,2.95-3.27,5.63,1.27,.88,2.71,1.85,4.13,2.86,3.16,2.26,3.34,4.99,.57,7.71-.73,.72-1.34,1.57-2.03,2.33-.72,.79-1.49,1.56-2.54,2.65-.16,1.04-.4,2.57-.66,4.22,1.24,0,2.35-.1,3.44,.03,1.09,.13,2.16,.47,3.39,.76-.1,.44-.39,.98-.29,1.43,.09,.44,.58,.8,1.09,1.46-.6,.78-1.15,1.75-1.95,2.44-1.75,1.51-3.69,2.7-5.86,3.62-2.92,1.23-5.59,3.03-8.5,4.3-3.19,1.39-6.46,2.8-9.83,3.54-3.71,.82-5.42-.02-6.14-4.31-.21-1.27,.47-2.77,1.02-4.05,.46-1.07,1.16-2.19,2.06-2.88,1.9-1.47,2.44-3.43,2.72-5.91Z"/>
    <path class="cls-6" d="M492.86,71.52c-1.37,1.07-2.78,1.81-3.68,2.96-1.16,1.48-2.46,1.88-4.17,1.59-.46-.08-.92-.09-1.6-.15,.04,1.6-.33,3.01,.66,4.4,.35,.49,.26,1.39,.17,2.07-.4,2.84-1.02,5.66-1.29,8.51-.22,2.35-1.09,4.4-2.08,6.68-1.65-1.38-3.27-2.55-5.37-2.92-.95-.17-1.15-1.18-1.28-2.1-.18-1.25-.38-2.5-.72-3.71-.67-2.39-1.02-4.76-1.02-7.29-.01-4.2,.42-8.42-.65-12.61-.55-2.15,.38-4.34,.72-6.29,1.61,.82,3.07,1.51,4.49,2.3,.52,.29,.94,.78,1.37,1.21,.16,.16,.19,.44,.31,.64,1.53,2.59,2.77,3.11,5.5,1.74,3.56-1.78,6.99-3.81,10.47-5.75,1.1-.61,2.08-1.53,3.5-.76,.29,.16,.78-.02,1.17-.05,2.81-.27,4.62,1.33,6.2,3.32,.25,.31,.32,.77,.59,1.03,3.66,3.49,2.02,7.66,1.4,11.63-.26,1.7-1.1,3.3-1.73,5.12,1.14,.88,2.19,1.68,3.34,2.56-.07,1.35-.04,2.8-.28,4.2-.11,.6-.71,1.22-1.25,1.61-1.84,1.34-3.93,1.73-6.14,1.2-1.75-.42-3.46-.41-5.2,.06-3.09,.84-5.99,.31-8.57-1.59-.48-.35-1.04-.93-1.1-1.46-.29-2.99-.18-5.9,2.28-8.17,1.29-1.19,2.53-2.44,3.71-3.74,1.59-1.77,1.68-3.55,.26-6.26Z"/>
    <path class="cls-15" d="M456.14,91.24v1.93c-1.07,.61-2.01,1.15-3.01,1.71-1.78-.71-2.42-1.57-2.4-3.49,.05-4.95,.76-9.79,1.85-14.65,1.4-6.21,2.26-12.56,.86-18.95-.12-.54-.2-1.11-.45-1.59-.8-1.53-2.03-1.68-3.25-.49-1.88,1.84-3.84,3.6-5.63,5.52-.79,.84-1.24,1.98-1.88,2.96-.43,.66-.93,1.28-1.76,1.73,0-.95-.05-1.9,.01-2.85,.08-1.43-.17-2.65-1.34-3.65-.41-.35-.63-1.1-.66-1.68-.23-3.83,.39-7.41,2.87-10.56,2.99-3.8,4.5-8.4,6.61-12.67,1.61-3.25,2.4-6.7,3.16-10.2,1.68-.02,2.17,1.16,2.63,2.21,1.08,2.47,2.07,4.99,3.08,7.5,1.07,2.68,.29,5.33-.2,7.97-.11,.61-.41,1.19-.52,1.51,1.71,.7,3.36,1.23,4.87,2.02,2.48,1.31,3.29,3.2,2.21,5.73-.7,1.65-.6,3.22-.64,4.89-.1,3.83-.35,7.65-.7,11.46-.51,5.48-1.17,10.95-1.76,16.42-.09,.87-.21,1.74-.28,2.62-.19,2.26-1.14,3.93-3.66,4.6Z"/>
    <path class="cls-12" d="M475.98,113.08c.31-.2,.38-.28,.45-.28q4.67-.41,7.36,3.46c2.73,3.94,5.45,7.88,8.18,11.82,.49,.71,1.02,1.39,1.67,2.26,.54-.64,1.01-1.14,1.41-1.69,3.19-4.49,6.46-8.93,9.49-13.53,1.26-1.91,2.67-2.8,4.9-2.4,.45,.08,.92,.09,1.49,.14v24.29h-6.61v-13.24c-.65,.62-1.05,.92-1.33,1.3-2.59,3.55-5.15,7.11-7.74,10.66-1.56,2.13-4.38,2.08-5.87-.1-2.25-3.3-4.47-6.62-6.71-9.92-.38-.56-.79-1.11-1.57-1.52v12.76h-5.11v-24Z"/>
    <path class="cls-12" d="M480.49,14.69c1.3-2.02,3.44-3.57,5.45-3.95,2.02-3.68,2.21-3.72,6.05-1.87,1.93,.93,3.9,1.79,5.87,2.64,1.68,.73,2.03,1.25,2.08,3.05,.04,1.19,.18,2.38,.26,3.57,.11,1.75,.18,1.78,1.94,1.74,2.63-.05,5.26-.03,7.89-.03,.32,0,.69-.03,.94,.11,.59,.34,1.44,.69,1.57,1.2,.12,.48-.46,1.23-.89,1.73-.34,.41-.91,.63-1.49,1.01-.06,.79-.13,1.64-.22,2.76-1.09,.16-2.15,.38-3.22,.47-1.16,.1-2.34,.02-3.51,.1-1.67,.12-3.33,.41-4.99,.45-5.03,.12-10.06,.12-15.09,.25-1.51,.04-3.04,.2-4.5,.55-3.48,.82-6.97,1.66-10.39,2.72-1.87,.58-3.29-.3-4.78-.93-.45-.19-.65-1.36-.66-2.08,0-.63,.22-1.43,1.32-1.21,.38,.08,.84-.35,1.29-.46,1.76-.44,3.53-.86,5.31-1.26,.46-.1,.96-.05,1.43-.13,4.63-.81,9.25-1.62,13.87-2.46,1.29-.23,2.43-.75,3.01-2.21-1.15-1.81-2.65-3.08-4.95-3.19-.63-.03-1.26-.19-1.88-.29,.38-.28,.74-.64,1.16-.81,.54-.22,1.14-.3,1.71-.44-.15-.22-.31-.64-.46-.64-.75,0-1.51,.1-2.26,.17-.62-.19-1.24-.38-1.86-.57Z"/>
    <path class="cls-11" d="M221.67,137.17v-10.32c-2.85-.08-5.57-.11-8.52,.05v10.28h-7.21v-24.31h7.15v9.92h8.49v-9.89h7.37v24.27h-7.29Z"/>
    <path class="cls-10" d="M458.74,112.42c.57,.03,1.45,.06,2.32,.14,6.38,.62,10.61,5.19,10.76,11.6,.01,.56,0,1.12,0,1.67-.07,6.13-3.18,10.1-9.17,11.4-3.72,.81-7.46,.73-11.05-.75-3.75-1.56-6.09-4.35-6.61-8.41-.59-4.67-.17-9.11,3.65-12.53,2.8-2.5,6.22-3.06,10.1-3.13Zm-6.56,12.89c.26,1.99,.36,4,.85,5.91,.22,.88,1.04,1.87,1.86,2.31,3.97,2.15,8.28,.05,9.14-4.35,.61-3.1,.49-6.21-.14-9.28-.53-2.61-1.78-3.71-4.42-3.9-1.1-.08-2.23,.05-3.32,.23-1.75,.29-2.89,1.4-3.21,3.13-.35,1.95-.51,3.94-.76,5.94Z"/>
    <path class="cls-10" d="M251.45,112.99c2.52-.72,4.29-.03,5.99,1.66,3.63,3.6,7.43,7.02,11.17,10.51,.64,.59,1.31,1.15,2.38,2.08,.07-5.04-.01-9.67,.05-14.4h5.11v24.24c-1.84,.56-3.26,.13-4.7-1.27-4.35-4.24-8.83-8.33-13.27-12.47-.34-.32-.7-.62-1.35-1.18v14.94h-5.38v-24.11Z"/>
    <path class="cls-16" d="M287.67,131.43c-.72,1.69-1.39,3.06-1.89,4.48-.38,1.1-1.04,1.46-2.15,1.4-1.35-.07-2.71-.02-4.07-.02,.16-1.72,8.75-21.14,10.81-24.49h6.71c3.71,7.91,7.49,15.97,11.43,24.37-2.67,.2-5.08,.14-7.61,.04-.6-1.43-1.25-2.8-1.75-4.22-.4-1.13-1.01-1.63-2.27-1.6-3.02,.08-6.05,.03-9.2,.03Zm5.19-12.59c-1.37,3.25-2.51,5.98-3.75,8.93h7.78c-1.32-2.92-2.54-5.62-4.03-8.93Z"/>
    <path class="cls-3" d="M272.86,87.01c-1.74-.54-2.62-1.86-3.24-3.35-.81-1.95-1.22-4.03-.62-6.1,.74-2.55,.29-5.05,.07-7.58-.08-.86-.26-1.82,.01-2.58,.83-2.29,.99-4.64,1.16-7.03,.21-2.86,.73-5.69,1.1-8.53,.08-.63,.22-1.28,.16-1.9-.22-2.27,.36-4.38,.87-6.57,.53-2.28,1.03-4.64,.62-7.08-.33-1.95-.4-3.96-.43-5.95-.03-2.03,.91-3.81,1.79-5.97,.47,.67,.84,1.05,1.04,1.51,.6,1.37,1.14,2.77,1.71,4.16,.12,.29,.35,.56,.4,.87,.54,3.91,1.98,7.76,.88,11.81-.2,.74-.34,1.67-.06,2.34,.48,1.19,.07,2.2-.2,3.26-.95,3.79-2.06,7.54-2.85,11.36-.52,2.48-.6,5.06-.84,7.6-.05,.54,.09,1.11,.16,1.66,.12,.92,.51,1.9,.33,2.76-.64,3.19-.37,6.33-.02,9.52,.24,2.17-.08,4.31-2.04,5.83Z"/>
    <path class="cls-7" d="M365.14,112.85v3.59h-12.33v6.51h9.43v3.88h-9.42v6.77h13.2v3.29c-1.71,.49-17.47,.61-20.6,.16v-24.2h19.72Z"/>
    <path class="cls-7" d="M395.3,112.84h19.77v3.57h-12.31v6.55h9.33v3.94h-9.39v6.63h13.21v3.62h-20.61v-24.32Z"/>
    <path class="cls-13" d="M441.51,113.26c0,.85,.01,1.55,0,2.26-.01,.46-.07,.92-.11,1.34-2.17-.18-4.23-.5-6.28-.5-5.05,0-8.02,2.93-8.24,7.99-.05,1.19,0,2.41,.19,3.58,.54,3.39,2.91,5.62,6.35,5.77,1.97,.09,3.96-.24,5.94-.41,.62-.05,1.23-.21,2.01-.35v3.64c-.44,.15-1,.41-1.6,.53-4.3,.86-8.59,.93-12.77-.55-4.62-1.63-7.43-4.72-7.86-9.81-.45-5.28,1.21-9.46,5.92-12.11,1.44-.81,3.07-1.41,4.68-1.75,3.87-.81,7.75-.62,11.77,.37Z"/>
    <path class="cls-13" d="M200.79,113.41v3.57c-.67-.09-1.27-.19-1.87-.24-1.82-.14-3.66-.41-5.47-.33-3.66,.15-6.44,2.44-7.04,6.01-.32,1.92-.28,4,.06,5.93,.61,3.34,2.98,5.28,6.39,5.38,1.97,.06,3.96-.27,5.93-.46,.62-.06,1.22-.2,1.97-.33v3.61c-.52,.18-1.09,.46-1.69,.57-4.46,.87-8.89,.92-13.21-.69-4.04-1.51-6.74-4.26-7.3-8.67-.62-4.85,.16-9.28,4.54-12.31,1.04-.72,2.17-1.36,3.34-1.83,3.8-1.54,10.01-1.62,14.34-.21Z"/>
    <path class="cls-2" d="M334.79,116.44v20.8c-2.47,.1-4.82,.11-7.47-.03v-20.72h-7.22v-3.63h21.61v3.59h-6.92Z"/>
    <path class="cls-1" d="M390.17,137.16h-19.44v-24.3h7.33v20.66h12.11v3.64Z"/>
    <path class="cls-11" d="M503.55,47.01c.39,1.39,.65,2.41-.73,3.1-.4,.2-.79,.87-.81,1.34-.23,4.13-2.69,4.78-5.99,5.51-1.6,.35-3.05,.23-4.55-.64-.98-.56-2.32-.82-3.46-.72-2.69,.24-4.64-.95-6.3-2.78-1.01-1.11-1.92-2.35-2.64-3.66-.72-1.32-.29-2.15,1.17-2.37,5.83-.9,11.66-1.88,17.51-.05,.79,.25,1.72,.07,2.58,.11,1.08,.05,2.17,.11,3.21,.16Z"/>
    <path class="cls-4" d="M278.87,84.65c3.15-.46,6.14,.14,8.91-1.06,.15-.06,.32-.18,.45-.14,2.94,.88,5.23-1.36,7.96-1.72,2.63-.34,5.07-1.91,7.7-2.46,3.21-.67,6.2-1.95,9.32-2.84,1.43-.41,2.85-.88,4.53-.94-.57,.45-1.07,1.05-1.71,1.33-4.47,2-8.33,4.97-12.44,7.55-2.53,1.59-5.36,2.75-8.14,3.89-3.08,1.26-6.23,2.39-9.42,3.35-2.79,.84-3.5,.43-4.81-2.03-.6-1.12-1.11-2.3-1.66-3.45-.2-.42-.39-.85-.68-1.47Z"/>
    <path class="cls-8" d="M236.8,112.83h7.18v24.32h-7.18v-24.32Z"/>
    <path class="cls-12" d="M503.56,38.4c-.03,1.85-1.15,3.16-2.1,4.51-.24,.34-.98,.48-1.47,.46-1.26-.05-2.52-.25-3.78-.38-2.84-.3-5.34-1.52-7.78-2.88-1.31-.73-2.58-1.55-3.86-2.33-.54-.33-1.17-.56-1.62-.98-1.15-1.09-1-2.44,.46-3.08,2.94-1.29,5.96-2.31,9.26-1.68,.7,.13,1.45,.45,2.11,.33,2.53-.48,4.53,.78,6.3,2.13,1.18,.89,2.29,2.23,2.48,3.92Z"/>
    <path class="cls-2" d="M322.47,54.93c-1.38,.78-2.86,1.04-4.45,1.11-1.41,.06-2.8,.57-4.19,.88-.59,.13-1.18,.27-2.35,.54,1.34-2.18,2.29-3.95,3.46-5.58,.99-1.38,1.04-2.75,.36-4.5,2.18,.7,4.13,1.19,5.98,1.95,1.3,.53,1.27,1.89,1.27,3.09,0,.85-.08,1.7-.12,2.55,0,0,.04-.04,.04-.04Z"/>
    <path class="cls-9" d="M236.01,19.44c-.15,0-.3-.02-.44-.05-.1-.26-.26-.74-.29-.74-.48,.12-1.4-.45-1.28,.72,.01,.15-.04,.3-.03,.26-1.39,.4-2.69,.83-4.02,1.1-.3,.06-.71-.45-1.07-.7,.37-.05,1.08-.11,1.08-.15-.07-1.61,1.11-1.48,2.1-1.47,3.07,.03,6.14,.12,9.22,.18-.95,.24-1.9,.48-2.86,.73-.79,.24-1.63-.75-2.39,.12Z"/>
    <path class="cls-9" d="M216.17,101.81c-.04,.67-.19,1.36-.08,2.01,.15,.86,.5,1.68,.77,2.51-1.28,.19-2.51-.26-3.2-1.17-.65-.86-.76-2.12-1.25-3.67,.85,.38,1.25,.45,1.48,.68,1.33,1.31,1.38,1.32,2.27-.36Z"/>
    <path class="cls-8" d="M480.49,14.69c.62,.19,1.24,.38,1.86,.56,.91,.16,1.81,.31,2.72,.47-.57,.14-1.17,.22-1.71,.44-.43,.18-.78,.53-1.16,.81-.46-.25-.93-.5-1.39-.75-.89,.31-1.87,.64-2.84,.97-.1-.19-.2-.39-.3-.58,.94-.64,1.88-1.29,2.83-1.93Z"/>
    <path class="cls-9" d="M221.27,102.08c.87,1.71,.88,1.71,0,3.62v-3.62Z"/>
    <path class="cls-9" d="M246.54,21c-.91-.5-1.82-1.01-2.73-1.51,1.37-.68,2.33,.17,3.31,.91-.19,.2-.39,.4-.58,.6Z"/>
    <path class="cls-9" d="M228.81,20.01c-1.06-.35-2.34,.59-3.27-.53,1.06,.35,2.33-.56,3.27,.53Z"/>
    <path class="cls-9" d="M215.78,99.5l1.83,.17c.05,.14,.09,.28,.14,.42-.39,.18-.77,.37-1.16,.55-.27-.38-.54-.77-.81-1.15Z"/>
    <path class="cls-9" d="M248.14,21.34c-.33-.3-.66-.61-.99-.91,.33,.3,.66,.61,.99,.91Z"/>
    <path class="cls-9" d="M214.51,94.8c.07,.23,.14,.45,.21,.68-.07-.23-.14-.45-.21-.68Z"/>
    <path class="cls-9" d="M215.15,97.18c.07,.2,.13,.41,.2,.61-.07-.2-.13-.41-.2-.61Z"/>
    <path class="cls-9" d="M248.51,21.91c-.12-.19-.24-.37-.36-.56,.12,.19,.24,.37,.36,.56Z"/>
    <path class="cls-14" d="M245.78,21.84c-.48,.03-.95,.06-1.43,.08,.48-.03,.95-.06,1.43-.08Z"/>
    <path class="cls-9" d="M243.26,20.92c.47-.69,.98-.61,1.5-.06-.5,.02-1,.04-1.5,.06Z"/>
    <path class="cls-14" d="M233.73,39.46c.33-.08,.67-.16,1-.25-.33,.08-.67,.16-1,.25Z"/>
    <path class="cls-14" d="M235.58,26.29c-.31,.13-.62,.26-.93,.4,.31-.13,.62-.26,.93-.4Z"/>
    <path class="cls-14" d="M237.97,25.36c-.3,.13-.59,.25-.89,.38,.3-.13,.59-.25,.89-.38Z"/>
    <path class="cls-14" d="M231.21,34.97c.05,.12,.07,.25,.06,.39-.05-.09-.11-.17-.15-.26,0-.03,.06-.08,.1-.12Z"/>
    <path class="cls-14" d="M230.96,32.94c.06,.09,.13,.17,.17,.27,.01,.03-.05,.1-.08,.15-.14-.11-.17-.25-.09-.41Z"/>
    <path class="cls-14" d="M231.49,38.72c.06,.23,.13,.46,.19,.69-.06-.23-.13-.46-.19-.69Z"/>
    <path class="cls-14" d="M231.24,30.9c-.11,.19-.21,.38-.32,.57,.11-.19,.21-.38,.32-.57Z"/>
    <path class="cls-14" d="M243.74,22.82c-.15,0-.3,0-.44-.01,.15,0,.3,0,.44,.01Z"/>
    <path class="cls-14" d="M244.26,22.01c-.04,.12-.11,.22-.21,.31,.07-.1,.14-.2,.21-.31Z"/>
    <path class="cls-14" d="M231.74,28.28c-.05,.15-.15,.25-.3,.31,.1-.1,.2-.21,.3-.31Z"/>
  </g>
</svg>