<?xml version="1.0" encoding="UTF-8"?>
<svg id="_图层_2" data-name="图层 2" xmlns="http://www.w3.org/2000/svg" viewBox="0 0 418.02 228.73">
  <defs>
    <style>
      .cls-1 {
        fill: #d8101d;
      }

      .cls-2 {
        fill: #2c2626;
      }

      .cls-3 {
        fill: #2e2929;
      }

      .cls-4 {
        fill: #2f2929;
      }

      .cls-5 {
        fill: #d70a17;
      }

      .cls-6 {
        fill: #2c2727;
      }

      .cls-7 {
        fill: #292323;
      }

      .cls-8 {
        fill: #2d2727;
      }

      .cls-9 {
        fill: #2b2525;
      }

      .cls-10 {
        fill: #282323;
      }

      .cls-11 {
        fill: #d80c19;
      }

      .cls-12 {
        fill: #282222;
      }

      .cls-13 {
        fill: #d70c19;
      }

      .cls-14 {
        fill: #2b2626;
      }

      .cls-15 {
        fill: #302a2a;
      }
    </style>
  </defs>
  <g id="_图层_1-2" data-name="图层 1">
    <path class="cls-13" d="M305.13,154.52c-2.48,2.67-4.37,4.87-6.43,6.89-12.27,12.09-30.77,12.31-42.43,.55-11.64-11.74-11.26-30.28,.88-42.41,11.33-11.32,22.67-22.63,35.1-35.03-1.26-.69-2.61-1.08-3.49-1.95-10.72-10.62-21.38-21.3-32.04-31.98-11.94-11.96-11.99-30.28-.13-42.07,11.59-11.52,29.98-11.28,41.82,.58,2.13,2.13,4.14,4.37,6.63,7,2.67-2.78,4.94-5.39,7.46-7.73,8.43-7.82,18.33-10.27,29.29-6.9,10.87,3.34,17.66,10.91,19.99,22.01,2.17,10.36-.64,19.53-8.13,27.09-10.62,10.72-21.33,21.35-31.99,32.03-.89,.89-1.74,1.82-2.7,2.82,11.66,11.64,23.23,23.04,34.63,34.61,13.12,13.33,11.5,34.26-3.33,45.05-11.54,8.39-27.49,7.17-37.94-2.97-2.32-2.25-4.46-4.7-7.19-7.59Zm.53-83.44c5.56-5.57,11.53-11.56,17.5-17.54,5.66-5.67,11.39-11.26,16.96-17.01,3.89-4.02,3.88-9.88,.23-13.83-3.62-3.92-9.5-4.29-13.78-.71-2.73,2.29-5.29,4.79-8.66,7.86,4.27,3.93,7.91,7.27,11.3,10.38-4.54,4.54-8.96,8.96-13.88,13.88-3.34-3.44-6.85-7.06-10.61-10.93-3.52,3.7-6.88,7.23-10.11,10.63-4.68-4.67-9.18-9.17-14.03-14.01,3.42-3.35,6.95-6.81,10.5-10.29-2.59-2.65-4.91-5.42-7.62-7.73-4.01-3.43-9.99-2.9-13.53,.89-3.55,3.79-3.78,9.85-.04,13.55,11.71,11.59,23.58,23,35.77,34.85Zm12.95,70.09c2.53,2.42,4.63,4.41,6.71,6.43,4.71,4.57,10.62,4.8,14.82,.56,4.17-4.22,3.84-10.05-.84-14.77-9.31-9.38-18.65-18.74-27.91-28.18-2.08-2.12-3.89-4.52-5.6-6.53-7.34,7.18-13.92,13.55-20.42,20.01-5.1,5.06-10.16,10.18-15.13,15.37-4.13,4.31-4.01,10.28,.11,14.28,4.04,3.91,9.77,3.81,14-.26,2.32-2.23,4.63-4.48,7.44-7.2-3.91-3.65-7.54-7.03-10.86-10.13,4.7-4.72,9.17-9.2,14.35-14.4,3.14,3.48,6.45,7.15,10.07,11.16,3.55-3.83,6.85-7.39,9.89-10.68,4.82,4.88,9.33,9.45,14.13,14.32-1.5,1.39-3.29,3.04-5.07,4.69-1.78,1.66-3.55,3.33-5.69,5.32Z"/>
    <path class="cls-11" d="M273.66,75.01c-3.3,3.21-6.86,6.67-10.58,10.28,3.72,3.57,7.29,7,10.62,10.2-4.83,4.82-9.31,9.31-14.36,14.35-2.98-3.37-6.25-7.07-10.38-11.74-3.1,3.57-5.38,6.86-8.3,9.44-11.85,10.46-30.26,9.43-40.78-2.05-11.2-12.24-10.52-30.36,1.57-41.83,11.32-10.74,29.52-10.35,40.83,.89,2.22,2.21,4.41,4.44,6.99,7.04,3.38-3.88,6.69-7.67,10.14-11.62,5.25,5.55,9.62,10.16,14.25,15.05Zm-37.87,10.2c-2.85-2.7-5.3-5.18-7.91-7.46-4.09-3.57-10.16-3.17-13.78,.75-3.65,3.96-3.55,10.02,.24,13.81,3.88,3.89,9.65,4.1,13.75,.37,2.49-2.26,4.82-4.68,7.7-7.48Z"/>
    <path class="cls-13" d="M335.93,75.24c5.11-5.11,9.6-9.61,14.36-14.38,3.27,3.43,6.67,7,10.39,10.89,2.6-2.66,4.9-5.08,7.27-7.43,11.05-10.93,28.86-11.33,40.31-.94,11.63,10.56,13.06,28.69,3.2,40.51-10.27,12.31-28.02,14.58-40.53,4.96-3.65-2.8-6.83-6.21-10.56-9.64-3.4,3.59-6.79,7.16-10,10.55-4.79-4.81-9.19-9.23-13.81-13.87,3.35-3,7.02-6.3,11.42-10.24-4.63-4-8.45-7.3-12.06-10.42Zm38.14,10.12c2.81,2.64,5.23,4.95,7.69,7.22,4.07,3.76,9.87,3.7,13.76-.11,3.84-3.76,4.05-9.8,.47-13.81-3.56-3.99-9.61-4.54-13.76-1.03-2.73,2.3-5.2,4.9-8.16,7.73Z"/>
    <path class="cls-9" d="M168.25,227.81h-8.24v-32.49h7.2c.22,.81,.46,1.74,.72,2.71,8.3-4.58,12.29-4.29,17.52,.61,3.81-1.3,7.13-3.11,10.61-3.47,5.95-.62,10.19,2.47,10.7,8.41,.68,7.91,.17,15.92,.17,24.11h-7.15c0-6.05,.03-12.16-.02-18.27-.01-1.49-.12-3.02-.48-4.46-.61-2.44-2.08-4.09-4.82-4.24-2.8-.15-4.78,1.12-5.65,3.68-.58,1.71-.77,3.61-.8,5.43-.1,5.89-.04,11.79-.04,17.87h-7.7c0-6,0-12,0-18.01,0-1.16,.04-2.33-.15-3.46-.62-3.62-2.62-5.54-5.59-5.53-3.1,.01-5.6,2.14-5.93,5.65-.36,3.91-.27,7.87-.33,11.81-.04,3.12,0,6.23,0,9.64Z"/>
    <path class="cls-14" d="M221.43,213.27h9.92v-15.53h-7.73c-.07-1.45-.13-2.57-.2-4h7.88c.17-1.96,.32-3.65,.48-5.43h6.57c.16,1.69,.32,3.36,.5,5.34,3.94,0,7.74-.03,11.53,0,3.67,.03,5.08,1.38,5.13,4.98,.06,4.29,.08,8.59,0,12.88-.08,3.59-2.31,5.84-5.89,5.95-3.58,.1-7.16,.02-10.7,.02q-1.43,11.41-7.34,10.88v-10.85h-16.74v-23.65h6.59v19.4Zm27.24-15.39h-9.87v15.52c2.44,0,4.62,0,6.81,0,2.17,0,3.1-1.12,3.07-3.26-.05-4.04-.01-8.08-.01-12.25Z"/>
    <path class="cls-9" d="M261.45,188.93h6.13v34.67c3.89,0,7.54,0,11.2,0,4.29,0,8.59,0,12.88,0,2.17,0,3.63-.82,3.64-3.2,.02-9.03,0-18.05,0-27.39h-25.62v-4.2c9.24,0,18.39-.06,27.54,.04,2.9,.03,4.38,1.79,4.38,4.73,0,9.4,.02,18.8-.02,28.2-.01,3.06-1.53,5.52-4.58,5.58-11.8,.23-23.61,.09-35.56,.09v-38.52Z"/>
    <path class="cls-14" d="M386.09,197.69q7.83,1.21,7.83,9.36c0,2.32,0,4.64,0,6.95,0,6.95-1.36,8.16-8.8,7.57-.31-1.11-.64-2.31-.96-3.46,1.44-.57,2.75-1.09,4.06-1.61-.12-.39-.24-.78-.36-1.17h-5.54c-.37,3.11,.14,7.2-5.49,6.25v-6.26h-5.95c-.77,6.2-.92,6.37-5.58,6.27v-23.34h5.67c.66-1.78,1.18-3.18,1.89-5.08,3.72,2.99,7.18,4.24,10.56,.06h-18.39c-.07-1.54-.13-2.77-.2-4.23h27.62c2.07,5.92-3.9,5.98-6.34,8.68Zm-15.3,3.79c.03,3.46,.03,3.55,3.29,3.33,.91-.06,1.77-.8,2.65-1.23-1.81-.64-3.63-1.28-5.94-2.1Zm-1.14,7c1.18,1.37,1.73,2.54,2.28,2.54,1.59,0,3.17-.47,4.76-.75-.46-.6-.86-1.61-1.4-1.7-1.44-.24-2.94-.08-5.63-.08Zm18.05-6.86c-2.13,.66-3.91,1.2-5.68,1.75,.81,.5,1.63,1.41,2.43,1.4,1.4-.02,4.05,1.2,3.25-3.15Zm-.17,10.1c1.15-4.01-1.24-3.29-2.66-3.17-.98,.08-1.9,.87-2.84,1.35,1.75,.58,3.49,1.16,5.51,1.82Z"/>
    <path class="cls-9" d="M150.99,150.31c.12-1.05,.23-2,.35-2.99h7.63v32.32h-7.61c-.14-.83-.28-1.65-.4-2.35-12.38,6.31-21.88,4.26-25.99-9.72-2.06-7,.05-13.85,6.5-18.46,5.59-3.99,12.05-3.57,19.52,1.21Zm-18.27,13.17c0,6.06,3.88,10.27,9.41,10.2,5.65-.07,9.38-4.17,9.34-10.27-.04-5.91-3.76-9.95-9.23-10.02-5.61-.07-9.52,4.07-9.52,10.09Z"/>
    <path class="cls-4" d="M42.33,132.66h8.09v17.4c2.22-1.12,3.85-2.24,5.66-2.8,7.79-2.4,14.61,2.31,15,10.65,.34,7.16,.07,14.35,.07,21.74h-7.66c0-5.33,0-10.73,0-16.13,0-1.51,.06-3.02-.02-4.52-.2-3.85-2.25-6.19-5.5-6.4-3.84-.24-6.82,2.01-7.11,6-.35,4.84-.24,9.72-.31,14.58-.03,2.07,0,4.14,0,6.45h-8.23v-46.97Z"/>
    <path class="cls-10" d="M39.34,147.15c-2.36,1.71-4.51,3.26-6.67,4.82-1.5-1.64-2.77-3.44-4.42-4.76-5.2-4.17-12.86-2.69-16.7,3.07-5.93,8.9-1.57,21.93,7.96,23.56,5.99,1.02,9.89-2.13,12.85-7.23,2.36,1.69,4.67,3.34,6.96,4.98-4.89,7.67-14.98,11.17-24.02,8.51C6.55,177.54,.14,169.42,0,160.72c-.16-10.61,5.45-18.92,14.8-21.89,8.98-2.86,19.27,.54,24.54,8.32Z"/>
    <path class="cls-8" d="M71.2,227.75h-7.73c0-6.86,.12-13.56-.04-20.25-.12-5-3.08-7.5-7.52-6.76-3.16,.53-5.25,3.16-5.33,7.12-.11,5.44-.03,10.89-.03,16.34,0,1.14,0,2.27,0,3.57h-8.27v-32.46h6.86c.19,.81,.39,1.64,.62,2.57,.34-.07,.72-.05,.95-.23,4.47-3.45,9.46-3.9,14.39-1.64,4.92,2.26,6.09,6.93,6.1,11.95,.01,6.59,0,13.18,0,19.79Z"/>
    <path class="cls-8" d="M100,179.77h-8.21v-32.45h6.96c.12,.8,.24,1.65,.39,2.62,.54-.2,.88-.25,1.14-.43,4.53-3.26,9.5-3.89,14.43-1.49,4.85,2.36,5.98,7.01,5.96,12.04-.03,6.48,0,12.97,0,19.63h-7.71c0-6.71,.09-13.39-.03-20.07-.1-5.21-3.12-7.81-7.7-6.94-3.1,.59-5.12,3.28-5.19,7.27-.09,5.33-.02,10.66-.03,15.99,0,1.15,0,2.29,0,3.83Z"/>
    <path class="cls-12" d="M5.46,195.28H13.84c0,6.56-.06,13.02,.02,19.47,.06,4.56,2.33,7.39,5.92,7.68,4.45,.36,7.42-2.35,7.48-7.09,.09-6.59,.02-13.18,.02-19.97h8.21v32.38h-6.75c-.19-.76-.4-1.61-.64-2.58-.44,.15-.77,.19-1.01,.36-4.77,3.46-9.97,3.8-15.1,1.33-4.92-2.37-6.49-6.98-6.52-12.17-.03-6.37,0-12.73,0-19.4Z"/>
    <path class="cls-7" d="M138.98,194.47c9.65-.04,17.31,7.42,17.41,16.97,.1,9.48-7.6,17.17-17.21,17.17-9.48,0-16.88-7.4-16.96-16.97-.07-9.47,7.41-17.14,16.76-17.18Zm9.74,16.48c-.1-.71-.17-2.12-.52-3.45-1.15-4.4-4.65-7.28-8.63-7.21-3.77,.06-7.29,2.95-8.35,7.15-.42,1.64-.57,3.43-.44,5.13,.47,6.39,4.1,10.45,9.03,10.34,5.08-.12,8.9-4.95,8.91-11.96Z"/>
    <path class="cls-6" d="M319.85,228.26v-7.3c-4.11,1.11-7.91,2.14-11.72,3.16-.31-.19-.63-.37-.94-.56,.71-1.48,1.5-2.93,2.11-4.46,.36-.9,.6-1.92,.61-2.89,.05-7.04,.03-14.07,.03-21.27h5.28c.11,1.17,.21,2.28,.33,3.59h4.09v-5.34h-10.99v-4.31c4.45,0,8.83-.03,13.22,0,3.11,.03,3.79,2.07,3.79,4.68-.01,6.71,0,13.42,0,20.42,.88,.12,1.66,.23,3.66,.5-1.29,1.94-2.44,3.21-3.03,4.71-.53,1.32-.57,2.88-.61,4.34-.12,4.62-1,5.41-5.83,4.7Zm-4.22-25.16v4.33h4.02v-4.33h-4.02Zm3.94,8.92h-3.98v5.21c3.52-.05,4.99-1.59,3.98-5.21Z"/>
    <path class="cls-2" d="M328.05,200.81v-3.96c1.36-.11,2.69-.21,4.46-.36-1.24-2.17-2.36-4.13-3.61-6.3,1.01-.71,1.91-1.35,3.14-2.21,1.75,2.06,3.45,4.05,5.28,6.2-.74,.8-1.38,1.49-2.5,2.7,5.78-.64,5.62-6.25,9.02-8.62,1.26,.92,2.63,1.91,4.1,2.98-1.35,1.73-2.54,3.26-4.02,5.16,1.49,.15,2.66,.27,4.2,.42,.06,1.12,.12,2.33,.19,3.86h-7.44v5.75c2.37,.12,4.76,.23,7.26,.35v3.8h-6.46c2.66,6,5.1,11.51,7.54,17.03-4.52,1.55-5.46,1.18-7.19-2.7-1.26-2.83-2.53-5.66-4.13-9.25-1.33,3.25-2.39,5.85-3.46,8.46-1.58,3.86-2.86,4.54-7.42,3.72,2.14-5.59,4.27-11.15,6.52-17.03-1.96-.11-3.54-.19-5.37-.29v-3.8h6.03v-5.93h-6.15Z"/>
    <path class="cls-7" d="M115.95,217.13c1.91,1.37,3.84,2.76,5.77,4.14-3.94,6.05-11.53,8.78-18.68,6.84-7.34-2-12.27-8.14-12.52-15.62-.27-7.83,4.08-14.41,11.23-17.01,7.1-2.57,15.03-.14,20.01,6.39-1.9,1.4-3.8,2.79-4.82,3.54-3.56-1.69-6.49-3.67-9.68-4.34-1.65-.34-4.2,1.25-5.63,2.69-4.19,4.22-3.67,12.9,.67,16.71,4.01,3.52,8.75,2.42,13.66-3.34Z"/>
    <path class="cls-3" d="M289.08,210.43c.69,1.5,3.9,1.34,2.55,4.4-.36,.82,1.47,2.62,2.72,4.66h-24.68v-3.71h8.06v-6.32h-7.88v-4.13h7.85v-4.55h-7.85c-.08-1.44-.15-2.63-.22-4.03h23.48v3.73h-8.69v4.64h8.64v4.16c-1.32,.14-2.67,.29-4.03,.44-.16,.06-.33,.12-.49,.18,.18,.18,.36,.36,.54,.54Zm-.95,5.2c-1.18-1.49-1.95-2.46-2.69-3.39,.58-.93,1.07-1.72,1.66-2.67-3.32,.02-3.63,.9-2.49,6.06h3.52Z"/>
    <path class="cls-15" d="M356.01,205.09c-1-.18-1.84-.33-2.78-.49v-3.69h8.87c0,5.92,0,11.69,0,17.46,0,4.71,.25,4.97,4.85,4.98,9.02,0,18.04,0,27.27,0,.07,1.38,.12,2.5,.2,4.03-5.7,0-11.22,0-16.75,0-5.22,0-10.44,.01-15.66,0-4.39-.02-5.97-1.62-5.99-6.12-.02-5.32,0-10.65,0-16.15Z"/>
    <path class="cls-5" d="M84.88,179.77h-7.34v-32.45h7.34v32.45Z"/>
    <path class="cls-5" d="M84.87,227.82h-7.33v-32.44h7.33v32.44Z"/>
    <path class="cls-1" d="M85.75,188c-.16,2.35-1.69,3.8-4.4,3.96-2.74,.17-4.79-1.74-4.71-4.39,.08-2.78,1.61-4.24,4.38-4.36,2.84-.12,4.72,1.63,4.73,4.78Z"/>
    <path class="cls-1" d="M81.38,135.16c2.78,.07,4.56,1.9,4.36,4.62-.2,2.79-1.98,4.05-4.57,4.17-2.64,.12-4.6-1.93-4.54-4.53,.05-2.63,1.95-4.33,4.75-4.26Z"/>
    <path class="cls-3" d="M353.42,192.03c1.18-.89,2.09-1.56,3.43-2.57,1.98,2.16,3.95,4.29,6.08,6.6-1.33,1.01-2.58,1.96-4.13,3.14-1.77-2.36-3.46-4.62-5.38-7.17Z"/>
  </g>
</svg>