<?xml version="1.0" encoding="UTF-8"?>
<svg id="_图层_2" data-name="图层 2" xmlns="http://www.w3.org/2000/svg" viewBox="0 0 381.22 86.7">
  <defs>
    <style>
      .cls-1 {
        fill: #000065;
      }
    </style>
  </defs>
  <g id="_图层_1-2" data-name="图层 1">
    <g>
      <g>
        <path d="M272.26,37.7c-.16,.68-.87,3.38-1.13,4.17h-12.74v-.73c2.44-.18,2.62-.42,2.62-2.57v-10.35c0-2.33-.29-2.46-2.25-2.65v-.73h8.02c2.46,0,3.49-.03,3.8-.05,.03,.66,.13,2.62,.24,4.01l-.79,.13c-.24-.89-.5-1.44-.79-1.99-.42-.87-1.02-1.05-2.6-1.05h-2.49c-.81,0-.87,.08-.87,.84v5.79h2.91c1.97,0,2.1-.39,2.41-2.18h.81v5.4h-.81c-.34-1.89-.55-2.15-2.44-2.15h-2.88v5.22c0,1.83,.58,1.99,1.89,2.02h2.44c1.6,0,1.86-.24,2.44-.92,.5-.55,1.05-1.62,1.42-2.41l.79,.21Z"/>
        <path d="M287.26,37.52c-.16,.81-.94,3.54-1.21,4.35h-12.19v-.73c2.39-.24,2.6-.37,2.6-2.6v-10.41c0-2.23-.26-2.36-2.36-2.57v-.73h7.03v.73c-2.1,.21-2.39,.31-2.39,2.57v10.67c0,1.6,.21,1.97,1.7,1.99,.03,0,1.91,.03,2.07,.03,1.34,0,1.73-.16,2.33-.81,.66-.68,1.21-1.73,1.6-2.7l.81,.21Z"/>
        <path d="M302.6,37.7c-.16,.68-.87,3.38-1.13,4.17h-12.74v-.73c2.44-.18,2.62-.42,2.62-2.57v-10.35c0-2.33-.29-2.46-2.25-2.65v-.73h8.02c2.46,0,3.49-.03,3.8-.05,.03,.66,.13,2.62,.24,4.01l-.79,.13c-.24-.89-.5-1.44-.79-1.99-.42-.87-1.02-1.05-2.6-1.05h-2.49c-.81,0-.87,.08-.87,.84v5.79h2.91c1.97,0,2.1-.39,2.41-2.18h.81v5.4h-.81c-.34-1.89-.55-2.15-2.44-2.15h-2.88v5.22c0,1.83,.58,1.99,1.89,2.02h2.44c1.6,0,1.86-.24,2.44-.92,.5-.55,1.05-1.62,1.42-2.41l.79,.21Z"/>
        <path d="M320.16,37.67c-.37,1.26-1.05,3.15-1.44,3.96-.76,.16-2.8,.63-4.8,.63-6.26,0-9.46-4.17-9.46-8.76,0-5.35,4.06-9.04,9.94-9.04,2.25,0,4.09,.47,4.95,.6,.1,1.18,.29,2.75,.5,4.06l-.81,.18c-.52-1.76-1.15-2.83-2.49-3.38-.68-.31-1.76-.5-2.75-.5-4.33,0-6.61,3.2-6.61,7.52,0,5.06,2.62,8.31,6.87,8.31,2.67,0,3.98-1.23,5.32-3.85l.79,.26Z"/>
        <path d="M336.5,28.94c-.24-.84-.55-1.7-.84-2.18-.42-.71-.68-.89-2.12-.89h-2.62v12.77c0,2.04,.21,2.33,2.7,2.49v.73h-7.63v-.73c2.44-.16,2.65-.42,2.65-2.49v-12.77h-2.39c-1.44,0-1.86,.16-2.31,.94-.31,.52-.52,1.15-.86,2.12h-.79c.16-1.6,.31-3.25,.39-4.72h.6c.39,.63,.68,.6,1.42,.6h10.38c.73,0,.94-.1,1.34-.6h.63c0,1.23,.11,3.12,.24,4.64l-.79,.08Z"/>
        <path d="M354.98,42.08c-.34,0-.63-.03-.97-.05-1.91-.13-2.94-.63-4.09-2.25-.97-1.34-1.91-2.99-2.75-4.33-.52-.84-.87-1-2.2-1h-.92v4.12c0,2.23,.29,2.36,2.39,2.57v.73h-7v-.73c2.18-.24,2.36-.34,2.36-2.57v-10.46c0-2.23-.29-2.31-2.36-2.54v-.73h6.68c1.91,0,3.2,.24,4.19,.89,1.08,.68,1.78,1.86,1.78,3.46,0,2.25-1.44,3.67-3.38,4.51,.47,.81,1.6,2.57,2.38,3.75,.97,1.39,1.47,2.04,2.07,2.7,.71,.76,1.31,1.05,1.91,1.21l-.11,.73Zm-9.67-8.52c1.36,0,2.23-.21,2.88-.76,1.02-.76,1.44-1.81,1.44-3.22,0-2.81-1.86-3.83-3.88-3.83-.76,0-1.21,.1-1.39,.26-.24,.18-.32,.45-.32,1.13v6.42h1.26Z"/>
        <path d="M356,41.87v-.73c2.15-.24,2.36-.34,2.36-2.57v-10.41c0-2.25-.21-2.36-2.36-2.6v-.73h7.03v.73c-2.18,.24-2.39,.34-2.39,2.6v10.41c0,2.25,.21,2.33,2.39,2.57v.73h-7.03Z"/>
        <path d="M381.22,37.67c-.37,1.26-1.05,3.15-1.44,3.96-.76,.16-2.8,.63-4.8,.63-6.26,0-9.46-4.17-9.46-8.76,0-5.35,4.06-9.04,9.94-9.04,2.25,0,4.09,.47,4.95,.6,.1,1.18,.29,2.75,.5,4.06l-.81,.18c-.52-1.76-1.15-2.83-2.49-3.38-.68-.31-1.76-.5-2.75-.5-4.33,0-6.61,3.2-6.61,7.52,0,5.06,2.62,8.31,6.87,8.31,2.67,0,3.98-1.23,5.32-3.85l.79,.26Z"/>
      </g>
      <g>
        <g>
          <path class="cls-1" d="M43.35,0C19.41,0,0,19.41,0,43.35s19.41,43.35,43.35,43.35,43.35-19.41,43.35-43.35S67.29,0,43.35,0Zm0,81.11c-20.85,0-37.76-16.91-37.76-37.76S22.5,5.59,43.35,5.59s37.76,16.9,37.76,37.76-16.9,37.76-37.76,37.76Z"/>
          <path d="M66.35,57.05l-1.48,5.42-.54,2h-.01c-.07,.09-.15,.16-.24,.23-.08,.06-.17,.11-.25,.16-.08,.04-.15,.08-.23,.11h-23.41v-.36c.06,.01,.13,.01,.19,.01,1.95,0,3.64-1.04,4.44-2.56v-26.06h-14.58v10.54c-.01,.12-.02,.23-.02,.35,0,.13,0,.26,.02,.38,.19,1.87,1.77,3.33,3.69,3.33,.1,0,.2,0,.29-.02v.37h-12.03v-.53c.11,.02,.22,.02,.33,.02,1.84,0,3.37-1.33,3.66-3.08V24.3c.01-.06,.01-.12,.01-.18s0-.13-.01-.19c-.09-1.96-1.71-3.52-3.7-3.52-.1,0-.2,0-.29,.02v-.37h12.03v.53c-.11-.02-.22-.02-.33-.02-1.81,0-3.33,1.3-3.65,3.02v10.41h14.58v-9.53c.01-.12,.02-.23,.02-.35,0-2.05-1.66-3.71-3.71-3.71-.1,0-.2,0-.29,.02v-.37h12.03v.53c-.11-.02-.22-.02-.33-.02-2.05,0-3.72,1.66-3.72,3.71,0,.06,0,.13,.01,.19v9.53h15.37v6.02h-.53c.02-.11,.02-.22,.02-.33,0-1.9-1.43-3.48-3.27-3.69h-11.59v12.03h8.36c2.03-.11,3.65-1.8,3.65-3.86,0-.05,0-.09-.01-.14h.3v10h-.3s.01-.1,.01-.15c0-2.06-1.62-3.74-3.65-3.84h0s-8.36-.01-8.36-.01v11.99c.18,.36,.42,.7,.69,.99h10.34c.15-.08,.31-.16,.48-.26,.74-.41,1.7-1.03,2.59-1.87h.01c1.03-.98,1.97-2.25,2.38-3.83h1.03Z"/>
        </g>
        <g>
          <path d="M115.01,25.56c-2.18,.21-2.39,.34-2.39,2.54v10.51c0,2.2,.24,2.28,2.39,2.52v.73h-7.03v-.73c2.18-.26,2.39-.31,2.39-2.52v-5.24h-8.97v5.24c0,2.18,.21,2.25,2.36,2.52v.73h-7v-.73c2.12-.24,2.36-.31,2.36-2.52v-10.51c0-2.2-.24-2.33-2.36-2.54v-.73h7v.73c-2.1,.18-2.36,.37-2.36,2.54v4.17h8.97v-4.17c0-2.18-.29-2.36-2.39-2.54v-.73h7.03v.73Z"/>
          <path d="M135.25,25.56c-1.65,.1-2.25,.52-2.31,1.73-.03,.6-.08,1.7-.08,4.12v2.83c0,2.67-.31,4.72-1.83,6.32-1.23,1.28-3.01,1.68-4.82,1.68-1.52,0-3.15-.31-4.3-1.21-1.57-1.21-2.33-3.01-2.33-6.08v-6.68c0-2.36-.21-2.52-2.31-2.7v-.73h6.89v.73c-2.1,.13-2.31,.34-2.31,2.7v6.55c0,3.83,1.81,5.92,4.95,5.92,3.72,0,4.9-2.31,4.9-6.66v-2.67c0-2.41-.08-3.41-.13-4.12-.08-1.18-.68-1.63-2.62-1.73v-.73h6.29v.73Z"/>
          <path d="M152.27,42.08c-.34,0-.63-.03-.97-.05-1.91-.13-2.94-.63-4.09-2.25-.97-1.34-1.91-2.99-2.75-4.33-.52-.84-.87-1-2.2-1h-.92v4.12c0,2.23,.29,2.36,2.39,2.57v.73h-7v-.73c2.18-.24,2.36-.34,2.36-2.57v-10.46c0-2.23-.29-2.31-2.36-2.54v-.73h6.68c1.91,0,3.2,.24,4.19,.89,1.07,.68,1.78,1.86,1.78,3.46,0,2.25-1.44,3.67-3.38,4.51,.47,.81,1.6,2.57,2.39,3.75,.97,1.39,1.47,2.04,2.07,2.7,.71,.76,1.31,1.05,1.91,1.21l-.1,.73Zm-9.67-8.52c1.36,0,2.23-.21,2.88-.76,1.02-.76,1.44-1.81,1.44-3.22,0-2.81-1.86-3.83-3.88-3.83-.76,0-1.21,.1-1.39,.26-.24,.18-.31,.45-.31,1.13v6.42h1.26Z"/>
          <path d="M168.84,42.08c-.34,0-.63-.03-.97-.05-1.91-.13-2.94-.63-4.09-2.25-.97-1.34-1.91-2.99-2.75-4.33-.52-.84-.87-1-2.2-1h-.92v4.12c0,2.23,.29,2.36,2.39,2.57v.73h-7v-.73c2.18-.24,2.36-.34,2.36-2.57v-10.46c0-2.23-.29-2.31-2.36-2.54v-.73h6.68c1.91,0,3.2,.24,4.19,.89,1.07,.68,1.78,1.86,1.78,3.46,0,2.25-1.44,3.67-3.38,4.51,.47,.81,1.6,2.57,2.39,3.75,.97,1.39,1.47,2.04,2.07,2.7,.71,.76,1.31,1.05,1.91,1.21l-.1,.73Zm-9.67-8.52c1.36,0,2.23-.21,2.88-.76,1.02-.76,1.44-1.81,1.44-3.22,0-2.81-1.86-3.83-3.88-3.83-.76,0-1.21,.1-1.39,.26-.24,.18-.31,.45-.31,1.13v6.42h1.26Z"/>
          <path d="M169.86,41.87v-.73c2.15-.24,2.36-.34,2.36-2.57v-10.41c0-2.25-.21-2.36-2.36-2.6v-.73h7.03v.73c-2.18,.24-2.39,.34-2.39,2.6v10.41c0,2.25,.21,2.33,2.39,2.57v.73h-7.03Z"/>
          <path d="M195.08,37.67c-.37,1.26-1.05,3.15-1.44,3.96-.76,.16-2.81,.63-4.8,.63-6.27,0-9.46-4.17-9.46-8.76,0-5.35,4.06-9.04,9.94-9.04,2.25,0,4.09,.47,4.96,.6,.1,1.18,.29,2.75,.5,4.06l-.81,.18c-.52-1.76-1.15-2.83-2.49-3.38-.68-.31-1.76-.5-2.75-.5-4.33,0-6.61,3.2-6.61,7.52,0,5.06,2.62,8.31,6.87,8.31,2.67,0,3.98-1.23,5.32-3.85l.79,.26Z"/>
          <path d="M207.46,41.87v-.73c1.7-.21,1.91-.47,1.55-1.47-.34-1.02-.87-2.33-1.42-3.98h-5.66c-.42,1.18-.81,2.2-1.18,3.28-.58,1.7-.21,1.91,1.94,2.18v.73h-6.06v-.73c1.65-.21,2.07-.39,2.99-2.75l5.43-13.76,.84-.16c1.65,4.48,3.46,9.44,5.11,13.97,.84,2.28,1.08,2.49,2.94,2.7v.73h-6.48Zm-2.62-13.97c-.84,2.25-1.73,4.64-2.52,6.71h4.9l-2.39-6.71Z"/>
          <path d="M233.1,25.56c-1.68,.18-2.23,.45-2.31,1.65-.03,.84-.08,1.94-.08,4.38v10.51h-1l-11.22-13.71v6.55c0,2.36,.08,3.54,.13,4.3,.05,1.34,.71,1.73,2.6,1.89v.73h-6.37v-.73c1.62-.13,2.25-.52,2.36-1.81,.08-.84,.13-2.02,.13-4.4v-6.69c0-.73-.05-1.15-.52-1.73-.5-.66-1.05-.81-2.33-.94v-.73h3.93l11.12,13.19v-6.42c0-2.44-.05-3.56-.13-4.35-.08-1.18-.68-1.55-2.78-1.68v-.73h6.47v.73Z"/>
          <path d="M248.8,37.7c-.16,.68-.87,3.38-1.13,4.17h-12.74v-.73c2.44-.18,2.62-.42,2.62-2.57v-10.35c0-2.33-.29-2.46-2.25-2.65v-.73h8.02c2.46,0,3.49-.03,3.8-.05,.03,.66,.13,2.62,.24,4.01l-.79,.13c-.24-.89-.5-1.44-.79-1.99-.42-.87-1.02-1.05-2.6-1.05h-2.49c-.81,0-.87,.08-.87,.84v5.79h2.91c1.97,0,2.1-.39,2.41-2.18h.81v5.4h-.81c-.34-1.89-.55-2.15-2.44-2.15h-2.88v5.22c0,1.83,.58,1.99,1.89,2.02h2.44c1.6,0,1.86-.24,2.44-.92,.5-.55,1.05-1.62,1.42-2.41l.79,.21Z"/>
        </g>
        <g>
          <path class="cls-1" d="M100.3,47.58h2.27v10.91h-2.27v-10.91Z"/>
          <path class="cls-1" d="M109.14,47.58h3.56l7.98,9.05h.15v-9.05h2.27v10.91h-3.01l-8.59-9.6h-.15v9.6h-2.22v-10.91Z"/>
          <path class="cls-1" d="M140.24,48.84h-5.1v9.65h-2.27v-9.65h-5.13v-1.26h12.51v1.26Z"/>
          <path class="cls-1" d="M156.37,57.22v1.27h-10.39v-10.91h9.75v1.26h-7.48v3.38h6.97v1.19h-6.97v3.8h8.11Z"/>
          <path class="cls-1" d="M213.61,57.22v1.27h-10.39v-10.91h9.75v1.26h-7.48v3.38h6.97v1.19h-6.97v3.8h8.11Z"/>
          <path class="cls-1" d="M174.31,58.49l-4.83-4.4c-.28,.02-.56,.02-.86,.02h-2.17v4.38h-2.27v-10.91h4.45c4.9,0,6.7,.82,6.7,3.22,0,1.89-1.16,2.78-3.59,3.13l5.26,4.56h-2.68Zm-1.29-7.69c0-1.65-1.34-2-4.6-2h-1.97v4.12h1.97c3.26,0,4.6-.27,4.6-2.12Z"/>
          <path class="cls-1" d="M183.43,47.58h3.56l7.98,9.05h.15v-9.05h2.27v10.91h-3.01l-8.59-9.6h-.15v9.6h-2.22v-10.91Z"/>
          <path class="cls-1" d="M233.06,48.84h-5.1v9.65h-2.27v-9.65h-5.13v-1.26h12.51v1.26Z"/>
          <path class="cls-1" d="M249.03,58.22v-1.3c1.04,.24,3.13,.49,5.21,.49,2.63,0,3.99-.49,3.99-1.84s-.76-1.7-4.04-2.18c-3.59-.54-4.9-1.08-4.9-3.02s1.87-2.96,5.84-2.96c1.69,0,3.56,.19,4.4,.39v1.29c-1.01-.24-2.78-.44-4.37-.44-2.45,0-3.61,.3-3.61,1.71,0,1.02,.43,1.38,3.59,1.84,3.92,.57,5.33,1.21,5.33,3.35s-2.17,3.1-6.22,3.1c-2.17,0-4.35-.24-5.21-.42Z"/>
          <path class="cls-1" d="M277.65,57.22v1.27h-10.38v-10.91h9.75v1.26h-7.48v3.38h6.97v1.19h-6.97v3.8h8.11Z"/>
          <path class="cls-1" d="M296.4,58.49l-4.83-4.4c-.28,.02-.56,.02-.86,.02h-2.17v4.38h-2.27v-10.91h4.45c4.9,0,6.7,.82,6.7,3.22,0,1.89-1.16,2.78-3.59,3.13l5.26,4.56h-2.68Zm-1.29-7.69c0-1.65-1.34-2-4.6-2h-1.97v4.12h1.97c3.26,0,4.6-.27,4.6-2.12Z"/>
          <path class="cls-1" d="M302.37,47.58h2.43l4.93,9.41h.15l5-9.41h2.3l-6.04,10.91h-2.83l-5.94-10.91Z"/>
          <path class="cls-1" d="M322.81,47.58h2.27v10.91h-2.27v-10.91Z"/>
          <path class="cls-1" d="M331.86,53.04c0-4.21,3.18-5.61,8.24-5.61,1.62,0,2.75,.11,3.79,.31v1.3c-1.01-.24-2.2-.38-3.74-.38-3.99,0-5.91,1.08-5.91,4.34,0,3.47,1.79,4.37,5.69,4.37,1.64,0,2.83-.14,4.17-.42v1.23c-.99,.27-2.48,.47-4.24,.47-4.83,0-7.99-1.05-7.99-5.61Z"/>
          <path class="cls-1" d="M363.13,57.22v1.27h-10.38v-10.91h9.75v1.26h-7.48v3.38h6.97v1.19h-6.97v3.8h8.11Z"/>
          <path class="cls-1" d="M369.8,58.22v-1.3c1.04,.24,3.13,.49,5.21,.49,2.63,0,3.99-.49,3.99-1.84s-.76-1.7-4.04-2.18c-3.59-.54-4.9-1.08-4.9-3.02s1.87-2.96,5.84-2.96c1.69,0,3.56,.19,4.4,.39v1.29c-1.01-.24-2.78-.44-4.37-.44-2.45,0-3.61,.3-3.61,1.71,0,1.02,.43,1.38,3.59,1.84,3.92,.57,5.33,1.21,5.33,3.35s-2.17,3.1-6.22,3.1c-2.17,0-4.35-.24-5.21-.42Z"/>
        </g>
      </g>
    </g>
  </g>
</svg>